<?xml version="1.0" encoding="utf-8"?>
<svg xmlns="http://www.w3.org/2000/svg" fill="none" height="100%" overflow="visible" preserveAspectRatio="none" style="display: block;" viewBox="0 0 40.2549 40.389" width="100%">
<g id="Group 1000007870">
<path d="M22.392 18.3821C37.2993 26.182 27.4439 38.9226 20.7294 40.1945H18.9394C21.5611 39.5586 27.13 36.6333 27.0602 30.3376C26.9963 24.5683 23.8242 24.0461 16.1258 18.9544C3.14547 10.3694 15.4864 0.194504 18.9393 0.194504H20.2821C16.9571 1.08481 6.47031 10.0514 22.392 18.3821Z" fill="var(--fill-0, white)" id="Vector 1507" stroke="var(--stroke-0, white)" stroke-width="0.389008"/>
<path d="M17.2607 0.421667C16.6061 0.723926 15.8825 1.16373 15.1562 1.71561C13.7045 2.81881 12.2279 4.38175 11.2686 6.22342C10.3081 8.06731 9.86161 10.1993 10.4902 12.4226C11.1186 14.6448 12.8122 16.9287 16.0703 19.0955C17.9906 20.3726 19.6306 21.3635 21.0039 22.2185C22.3802 23.0755 23.4848 23.7924 24.3506 24.5271C25.2133 25.2592 25.8322 26.0041 26.2422 26.9119C26.6528 27.8213 26.8602 28.9094 26.876 30.3367C26.91 33.425 25.5702 35.6842 23.8975 37.2547C22.2203 38.8292 20.2118 39.7068 18.9346 40.0183L18.9531 40.1736C8.38348 39.5695 0 30.8619 0 20.2078C0.000143948 10.1171 7.52052 1.77255 17.2959 0.405065C17.2841 0.410426 17.2725 0.416221 17.2607 0.421667ZM20.3525 0.210729C31.3646 0.330825 40.2547 9.23701 40.2549 20.2078C40.2549 30.703 32.1189 39.3096 21.7725 40.1414C23.2139 39.6615 24.723 38.7311 26.0645 37.4978C27.7133 35.9819 29.1244 33.9961 29.8535 31.7967C30.5836 29.5945 30.6298 27.1755 29.543 24.8094C28.4569 22.4451 26.2494 20.1542 22.5107 18.1873C18.5639 16.1108 16.2767 14.007 15.1025 12.0203C13.9325 10.0404 13.8601 8.16432 14.3662 6.51444C14.8745 4.85763 15.9699 3.41812 17.1504 2.33573C18.3339 1.25063 19.5814 0.542953 20.3691 0.330846L20.3525 0.210729Z" fill="var(--fill-0, black)" id="Subtract"/>
<path d="M17.2607 0.421667C16.6061 0.723926 15.8825 1.16373 15.1562 1.71561C13.7045 2.81881 12.2279 4.38175 11.2686 6.22342C10.3081 8.06731 9.86161 10.1993 10.4902 12.4226C11.1186 14.6448 12.8122 16.9287 16.0703 19.0955C17.9906 20.3726 19.6306 21.3635 21.0039 22.2185C22.3802 23.0755 23.4848 23.7924 24.3506 24.5271C25.2133 25.2592 25.8322 26.0041 26.2422 26.9119C26.6528 27.8213 26.8602 28.9094 26.876 30.3367C26.91 33.425 25.5702 35.6842 23.8975 37.2547C22.2203 38.8292 20.2118 39.7068 18.9346 40.0183L18.9531 40.1736C8.38348 39.5695 0 30.8619 0 20.2078C0.000143948 10.1171 7.52052 1.77255 17.2959 0.405065C17.2841 0.410426 17.2725 0.416221 17.2607 0.421667ZM20.3525 0.210729C31.3646 0.330825 40.2547 9.23701 40.2549 20.2078C40.2549 30.703 32.1189 39.3096 21.7725 40.1414C23.2139 39.6615 24.723 38.7311 26.0645 37.4978C27.7133 35.9819 29.1244 33.9961 29.8535 31.7967C30.5836 29.5945 30.6298 27.1755 29.543 24.8094C28.4569 22.4451 26.2494 20.1542 22.5107 18.1873C18.5639 16.1108 16.2767 14.007 15.1025 12.0203C13.9325 10.0404 13.8601 8.16432 14.3662 6.51444C14.8745 4.85763 15.9699 3.41812 17.1504 2.33573C18.3339 1.25063 19.5814 0.542953 20.3691 0.330846L20.3525 0.210729Z" fill="var(--fill-0, #0A6EC1)" id="Subtract_2"/>
<path d="M20.3047 0.209434C31.3167 0.329573 40.2068 9.23583 40.207 20.2065C40.207 30.7 32.0735 39.3049 21.7295 40.1391C23.1694 39.6588 24.6767 38.7294 26.0166 37.4975C27.6654 35.9816 29.0765 33.9958 29.8057 31.7963C30.5357 29.5942 30.5818 27.1751 29.4951 24.809C28.4091 22.4449 26.2013 20.1538 22.4629 18.187C18.5162 16.1105 16.2289 14.0066 15.0547 12.02C13.8848 10.0401 13.8123 8.16395 14.3184 6.51412C14.8267 4.85733 15.9221 3.41778 17.1026 2.33541C18.286 1.25032 19.5336 0.542633 20.3213 0.330528L20.3047 0.209434Z" fill="var(--fill-0, #74C02E)" id="Subtract_3"/>
<path d="M21.2756 34.0297H10.8934C10.8297 29.8259 10.8934 25.8769 10.8297 23.5202C12.5622 24.7431 14.6089 25.6221 15.352 25.8769V29.3164H21.7214L21.2756 34.0297Z" fill="var(--fill-0, white)" id="Vector 1509"/>
<path d="M29.7449 15.3668C34.6366 16.1311 37.7279 18.3604 38.6621 19.3795C40.9551 10.9082 28.9167 -0.301862 20.5092 0.908171C13.8213 4.72983 17.3245 10.9082 17.3245 11.0356C17.3245 11.1375 18.3436 11.078 18.8531 11.0356H25.4773L26.3054 11.6725C25.4136 12.5855 24.8531 14.6024 29.7449 15.3668Z" fill="url(#paint0_linear_0_15919)" id="Vector 1510"/>
<path d="M19.2982 6.32308H29.6804C29.7441 10.5269 29.6804 14.4759 29.7441 16.8326C28.0116 15.6097 25.9649 14.7307 25.2218 14.4759V11.0365H18.8524L19.2982 6.32308Z" fill="var(--fill-0, white)" id="Vector 1508"/>
<path d="M1.33835 19.635C4.49758 17.5458 8.59949 16.0469 10.2555 15.5586C8.28089 12.1828 7.09641 5.25286 15.8606 0.717826C5.86051 4.2847 0.446749 12.4376 1.33835 19.635Z" fill="url(#paint1_linear_0_15919)" id="Vector 1511"/>
</g>
<defs>
<linearGradient gradientUnits="userSpaceOnUse" id="paint0_linear_0_15919" x1="27.6773" x2="27.6773" y1="0.817919" y2="19.3795">
<stop stop-color="#A7DE6B"/>
<stop offset="1" stop-color="#7BC640"/>
</linearGradient>
<linearGradient gradientUnits="userSpaceOnUse" id="paint1_linear_0_15919" x1="8.55191" x2="8.55191" y1="0.717826" y2="19.635">
<stop stop-color="#4394D1"/>
<stop offset="1" stop-color="#4394D1" stop-opacity="0.5"/>
</linearGradient>
</defs>
</svg>