<?xml version="1.0" encoding="utf-8"?>
<svg xmlns="http://www.w3.org/2000/svg" fill="none" height="100%" overflow="visible" preserveAspectRatio="none" style="display: block;" viewBox="0 0 32.2031 32.3112" width="100%">
<g id="Group 1000007870">
<path d="M17.9136 14.7057C29.8394 20.9456 21.9552 31.1381 16.5835 32.1556H15.1515C17.2489 31.6469 21.704 29.3066 21.6482 24.2701C21.597 19.6546 19.0593 19.2369 12.9006 15.1636C2.51638 8.29551 12.3892 0.155603 15.1514 0.155603H16.2257C13.5656 0.867845 5.17625 8.04114 17.9136 14.7057Z" fill="var(--fill-0, white)" id="Vector 1507" stroke="var(--stroke-0, white)" stroke-width="0.311206"/>
<path d="M13.8086 0.337439C13.2849 0.579247 12.705 0.931088 12.124 1.3726C10.9628 2.25514 9.782 3.50592 9.01465 4.97904C8.24638 6.4541 7.88974 8.15945 8.39258 9.93802C8.89522 11.7157 10.2501 13.5425 12.8565 15.2759C14.3925 16.2974 15.7042 17.0909 16.8027 17.7749C17.9037 18.4604 18.7869 19.0349 19.4795 19.6226C20.1696 20.2083 20.6652 20.8036 20.9932 21.5298C21.3216 22.2573 21.4874 23.1274 21.5 24.2691C21.5272 26.7398 20.4564 28.5479 19.1182 29.8042C17.7765 31.0638 16.1692 31.765 15.1475 32.0142L15.1621 32.1382C6.70661 31.6547 6.10352e-06 24.6897 6.10352e-06 16.1665C0.000103152 8.09362 6.01706 1.41827 13.8379 0.324744C13.8282 0.329144 13.8183 0.332967 13.8086 0.337439ZM16.2813 0.168494C25.0913 0.264154 32.203 7.38963 32.2031 16.1665C32.2031 24.562 25.6961 31.4454 17.4199 32.1119C18.5721 31.7276 19.7783 30.9843 20.8506 29.9986C22.1697 28.7858 23.2985 27.1966 23.8818 25.437C24.4658 23.6753 24.5033 21.7401 23.6338 19.8472C22.7649 17.9559 20.9985 16.1238 18.0078 14.5503C14.8505 12.8891 13.0213 11.2051 12.082 9.61576C11.1461 8.03191 11.0873 6.5313 11.4922 5.21146C11.8988 3.88615 12.7755 2.73457 13.7197 1.86869C14.6663 1.00077 15.6647 0.434976 16.2949 0.265173L16.2813 0.168494Z" fill="var(--fill-0, black)" id="Subtract"/>
<path d="M13.8086 0.337439C13.2849 0.579247 12.705 0.931088 12.124 1.3726C10.9628 2.25514 9.782 3.50592 9.01465 4.97904C8.24638 6.4541 7.88974 8.15945 8.39258 9.93802C8.89522 11.7157 10.2501 13.5425 12.8565 15.2759C14.3925 16.2974 15.7042 17.0909 16.8027 17.7749C17.9037 18.4604 18.7869 19.0349 19.4795 19.6226C20.1696 20.2083 20.6652 20.8036 20.9932 21.5298C21.3216 22.2573 21.4874 23.1274 21.5 24.2691C21.5272 26.7398 20.4564 28.5479 19.1182 29.8042C17.7765 31.0638 16.1692 31.765 15.1475 32.0142L15.1621 32.1382C6.70661 31.6547 6.10352e-06 24.6897 6.10352e-06 16.1665C0.000103152 8.09362 6.01706 1.41827 13.8379 0.324744C13.8282 0.329144 13.8183 0.332967 13.8086 0.337439ZM16.2813 0.168494C25.0913 0.264154 32.203 7.38963 32.2031 16.1665C32.2031 24.562 25.6961 31.4454 17.4199 32.1119C18.5721 31.7276 19.7783 30.9843 20.8506 29.9986C22.1697 28.7858 23.2985 27.1966 23.8818 25.437C24.4658 23.6753 24.5033 21.7401 23.6338 19.8472C22.7649 17.9559 20.9985 16.1238 18.0078 14.5503C14.8505 12.8891 13.0213 11.2051 12.082 9.61576C11.1461 8.03191 11.0873 6.5313 11.4922 5.21146C11.8988 3.88615 12.7755 2.73457 13.7197 1.86869C14.6663 1.00077 15.6647 0.434976 16.2949 0.265173L16.2813 0.168494Z" fill="var(--fill-0, #0A6EC1)" id="Subtract_2"/>
<path d="M16.244 0.167712C25.0536 0.263955 32.1659 7.38912 32.1659 16.1658C32.1658 24.5581 25.6624 31.4394 17.3905 32.1101C18.5403 31.7251 19.7436 30.9822 20.8134 29.9988C22.1324 28.7861 23.2612 27.1967 23.8446 25.4372C24.4285 23.6757 24.4657 21.7401 23.5966 19.8474C22.7278 17.9562 20.9609 16.1239 17.9706 14.5505C14.8135 12.8895 12.9842 11.2052 12.0448 9.61595C11.1088 8.03212 11.0501 6.5315 11.455 5.21166C11.8616 3.88623 12.7381 2.73479 13.6825 1.86888C14.6293 1.0008 15.6275 0.435027 16.2577 0.265369L16.244 0.167712Z" fill="var(--fill-0, #74C02E)" id="Subtract_3"/>
<path d="M17.0205 27.2236H8.71473C8.66378 23.8605 8.71473 20.7013 8.66378 18.8159C10.0498 19.7943 11.6871 20.4975 12.2816 20.7013V23.4529H17.3772L17.0205 27.2236Z" fill="var(--fill-0, white)" id="Vector 1509"/>
<path d="M23.7959 12.2935C27.7093 12.905 30.1823 14.6884 30.9297 15.5037C32.7641 8.72664 23.1333 -0.241394 16.4074 0.726632C11.057 3.78396 13.8596 8.72663 13.8596 8.82854C13.8596 8.91007 14.6749 8.86251 15.0825 8.82854H20.3819L21.0443 9.3381C20.3309 10.0685 19.8825 11.682 23.7959 12.2935Z" fill="url(#paint0_linear_0_15947)" id="Vector 1510"/>
<path d="M15.4386 5.05834H23.7443C23.7953 8.42139 23.7443 11.5806 23.7953 13.466C22.4093 12.4876 20.7719 11.7845 20.1775 11.5806V8.82904H15.0819L15.4386 5.05834Z" fill="var(--fill-0, white)" id="Vector 1508"/>
<path d="M1.07069 15.7081C3.59808 14.0368 6.87961 12.8376 8.20445 12.447C6.62472 9.74633 5.67714 4.20238 12.6885 0.574353C4.68842 3.42786 0.357409 9.95015 1.07069 15.7081Z" fill="url(#paint1_linear_0_15947)" id="Vector 1511"/>
</g>
<defs>
<linearGradient gradientUnits="userSpaceOnUse" id="paint0_linear_0_15947" x1="22.1419" x2="22.1419" y1="0.654431" y2="15.5037">
<stop stop-color="#A7DE6B"/>
<stop offset="1" stop-color="#7BC640"/>
</linearGradient>
<linearGradient gradientUnits="userSpaceOnUse" id="paint1_linear_0_15947" x1="6.84154" x2="6.84154" y1="0.574353" y2="15.7081">
<stop stop-color="#4394D1"/>
<stop offset="1" stop-color="#4394D1" stop-opacity="0.5"/>
</linearGradient>
</defs>
</svg>