<?xml version="1.0" encoding="utf-8"?>
<svg xmlns="http://www.w3.org/2000/svg" fill="none" height="100%" overflow="visible" preserveAspectRatio="none" style="display: block;" viewBox="0 0 32 22.1694" width="100%">
<g id="Group 1000008207">
<g id="Group 1000008199">
<path d="M31.9662 17.1527L18.7703 17.1866L11.5561 11.1593L31.9662 17.1527Z" fill="var(--fill-0, #09696E)" id="Vector 1205"/>
<path d="M18.7369 0.000143051H31.9664V4.94907H18.7369V0.000143051Z" fill="var(--fill-0, #1DBF98)" id="Rectangle 3761"/>
<path d="M0 0H4.90231V4.94893H0V0Z" fill="var(--fill-0, #1DBF98)" id="Rectangle 3764"/>
<path d="M0 8.88198H4.90231V22.1017H0V8.88198Z" fill="var(--fill-0, #1DBF98)" id="Rectangle 3765"/>
<path d="M11.5561 11.2599L18.7367 0.000143051V4.94885L11.5561 11.2599Z" fill="var(--fill-0, #ACEED6)" id="Vector 1202"/>
<path d="M11.7564 11.2599L4.90218 0.000143051V4.94885L11.7564 11.2599Z" fill="var(--fill-0, #ACEED6)" id="Vector 1207"/>
<path d="M18.7367 4.94887L11.5561 11.2599L31.9662 4.94887H18.7367Z" fill="var(--fill-0, #09696E)" id="Vector 1204"/>
<path d="M4.90217 4.94887L11.7564 11.2599L0.0334377 4.94887H4.90217Z" fill="var(--fill-0, #09696E)" id="Vector 1208"/>
<path d="M18.7031 17.1522H31.9662V22.1011H18.7031V17.1522Z" fill="var(--fill-0, #1DBF98)" id="Rectangle 3763"/>
<path d="M18.7703 17.1866V22.1694L11.5561 11.1593L18.7703 17.1866Z" fill="var(--fill-0, #ACEED6)" id="Vector 1203"/>
<path d="M4.90245 8.88198V22.1017L11.6563 11.1592L4.90245 8.88198Z" fill="var(--fill-0, #ACEED6)" id="Vector 1209"/>
<rect fill="var(--fill-0, #1DBF98)" height="4.94893" id="Rectangle 3762" width="13.2967" x="18.7031" y="8.88198"/>
<path d="M11.4557 11.1592L18.7032 8.88198V13.8309L11.4557 11.1592Z" fill="var(--fill-0, #ACEED6)" id="Vector 1201"/>
</g>
</g>
</svg>