<?xml version="1.0" encoding="utf-8"?>
<svg xmlns="http://www.w3.org/2000/svg" fill="none" height="100%" overflow="visible" preserveAspectRatio="none" style="display: block;" viewBox="0 0 70 70" width="100%">
<g id="Frame 1000008496">
<rect fill="url(#paint0_radial_0_14629)" height="70" width="70"/>
<g id="Vector">
<path d="M41.5264 26.1594C42.2537 25.4081 43.4573 25.3839 44.2147 26.1052C44.9722 26.8264 44.9966 28.0202 44.2694 28.7714L28.4426 45.1198C27.7153 45.871 26.5117 45.8953 25.7543 45.174C24.9968 44.4527 24.9724 43.259 25.6996 42.5077L41.5264 26.1594Z" fill="#1DBF98"/>
<path d="M28.2162 29.3721C28.9548 28.6319 30.1586 28.6256 30.905 29.3581C31.6514 30.0906 31.6578 31.2845 30.9192 32.0248L27.2528 35.6996C26.5142 36.4399 25.3104 36.4462 24.564 35.7137C23.8176 34.9812 23.8112 33.7872 24.5498 33.047L28.2162 29.3721Z" fill="var(--fill-0, #1DBF98)"/>
<path d="M42.7472 36.5991C43.4858 35.8588 44.6896 35.8525 45.436 36.585C46.1824 37.3176 46.1888 38.5115 45.4502 39.2518L39.2755 45.4406C38.537 46.1809 37.3331 46.1872 36.5867 45.4547C35.8403 44.7222 35.834 43.5282 36.5726 42.788L42.7472 36.5991Z" fill="#1DBF98"/>
<path d="M36.1335 25.9333C36.1335 27.0011 35.2607 27.8667 34.1841 27.8667C33.1075 27.8667 32.2348 27.0011 32.2348 25.9333C32.2348 24.8656 33.1075 24 34.1841 24C35.2607 24 36.1335 24.8656 36.1335 25.9333Z" fill="var(--fill-0, #1DBF98)"/>
</g>
</g>
<defs>
<radialGradient cx="0" cy="0" gradientTransform="translate(35 35) rotate(90) scale(35)" gradientUnits="userSpaceOnUse" id="paint0_radial_0_14629" r="1">
<stop offset="0.375" stop-color="white"/>
<stop offset="1" stop-color="white" stop-opacity="0"/>
</radialGradient>
</defs>
</svg>