<?xml version="1.0" encoding="utf-8"?>
<svg xmlns="http://www.w3.org/2000/svg" fill="none" height="100%" overflow="visible" preserveAspectRatio="none" style="display: block;" viewBox="0 0 60 60" width="100%">
<g id="Frame 1000008497">
<rect fill="url(#paint0_radial_0_15967)" height="60" width="60"/>
<g id="Group 1000007870" opacity="0.3">
<path d="M31.0661 29.1469C38.0826 32.8181 33.444 38.8148 30.2836 39.4135H29.4411C30.6751 39.1142 33.2962 37.7373 33.2634 34.7741C33.2333 32.0586 31.7402 31.8128 28.1168 29.4163C22.0073 25.3755 27.8159 20.5864 29.4411 20.5864H30.0731C28.5081 21.0055 23.5722 25.2258 31.0661 29.1469Z" fill="var(--fill-0, white)" id="Vector 1507" stroke="var(--stroke-0, white)" stroke-width="0.183097"/>
<path d="M28.6516 20.6933C28.3434 20.8355 28.0022 21.0429 27.6604 21.3026C26.9772 21.8219 26.2827 22.558 25.8313 23.4247C25.3793 24.2925 25.1693 25.2954 25.465 26.3417C25.7608 27.3876 26.5577 28.4625 28.091 29.4823C28.9949 30.0834 29.7669 30.5506 30.4133 30.953C31.061 31.3563 31.581 31.6942 31.9885 32.0399C32.3944 32.3845 32.6862 32.7347 32.8791 33.162C33.0723 33.5899 33.1695 34.1018 33.177 34.7733C33.193 36.2269 32.5629 37.291 31.7756 38.0302C30.9863 38.7712 30.0408 39.1843 29.4397 39.331L29.4475 39.4032C24.4727 39.1188 20.5266 35.0213 20.5266 30.0067C20.5266 25.2591 24.0639 21.3344 28.6623 20.6884C28.6587 20.69 28.6552 20.6916 28.6516 20.6933ZM30.1067 20.5946C35.2896 20.6514 39.4738 24.8431 39.4738 30.0067C39.4738 34.9471 35.6433 38.9959 30.7727 39.3866C31.4515 39.1609 32.1633 38.7253 32.7951 38.1444C33.5712 37.4309 34.2351 36.4961 34.5783 35.4608C34.922 34.4243 34.9444 33.2855 34.4328 32.1718C33.9217 31.059 32.882 29.9814 31.1223 29.0556C29.2645 28.0782 28.1886 27.0874 27.6359 26.1523C27.0853 25.2205 27.0511 24.3379 27.2893 23.5614C27.5285 22.7816 28.0442 22.1041 28.5998 21.5946C29.1568 21.0839 29.7437 20.7511 30.1145 20.6513L30.1067 20.5946Z" fill="var(--fill-0, black)" id="Subtract"/>
<path d="M28.6516 20.6933C28.3434 20.8355 28.0022 21.0429 27.6604 21.3026C26.9772 21.8219 26.2827 22.558 25.8313 23.4247C25.3793 24.2925 25.1693 25.2954 25.465 26.3417C25.7608 27.3876 26.5577 28.4625 28.091 29.4823C28.9949 30.0834 29.7669 30.5506 30.4133 30.953C31.061 31.3563 31.581 31.6942 31.9885 32.0399C32.3944 32.3845 32.6862 32.7347 32.8791 33.162C33.0723 33.5899 33.1695 34.1018 33.177 34.7733C33.193 36.2269 32.5629 37.291 31.7756 38.0302C30.9863 38.7712 30.0408 39.1843 29.4397 39.331L29.4475 39.4032C24.4727 39.1188 20.5266 35.0213 20.5266 30.0067C20.5266 25.2591 24.0639 21.3344 28.6623 20.6884C28.6587 20.69 28.6552 20.6916 28.6516 20.6933ZM30.1067 20.5946C35.2896 20.6514 39.4738 24.8431 39.4738 30.0067C39.4738 34.9471 35.6433 38.9959 30.7727 39.3866C31.4515 39.1609 32.1633 38.7253 32.7951 38.1444C33.5712 37.4309 34.2351 36.4961 34.5783 35.4608C34.922 34.4243 34.9444 33.2855 34.4328 32.1718C33.9217 31.059 32.882 29.9814 31.1223 29.0556C29.2645 28.0782 28.1886 27.0874 27.6359 26.1523C27.0853 25.2205 27.0511 24.3379 27.2893 23.5614C27.5285 22.7816 28.0442 22.1041 28.5998 21.5946C29.1568 21.0839 29.7437 20.7511 30.1145 20.6513L30.1067 20.5946Z" fill="var(--fill-0, #1DBF98)" id="Subtract_2"/>
<path d="M30.0826 20.5947C35.2661 20.6507 39.4506 24.8419 39.4507 30.0058C39.4507 34.9457 35.6214 38.9933 30.7515 39.3847C31.4294 39.1586 32.1403 38.7244 32.771 38.1445C33.547 37.431 34.2111 36.4961 34.5542 35.4609C34.8978 34.4244 34.9202 33.2855 34.4087 32.1718C33.8976 31.0591 32.8577 29.9814 31.0982 29.0556C29.2405 28.0783 28.1645 27.0874 27.6118 26.1523C27.0612 25.2205 27.027 24.338 27.2652 23.5615C27.5044 22.7817 28.0201 22.1041 28.5757 21.5947C29.1327 21.0841 29.7196 20.7512 30.0904 20.6513L30.0826 20.5947Z" fill="var(--fill-0, #1DBF98)" id="Subtract_3"/>
<path d="M30.5396 36.5117H25.653C25.623 34.533 25.653 32.6743 25.623 31.5651C26.4385 32.1407 27.4018 32.5544 27.7516 32.6743V34.2932H30.7495L30.5396 36.5117Z" fill="var(--fill-0, white)" id="Vector 1509"/>
<path d="M34.5272 27.7279C36.8296 28.0877 38.2846 29.137 38.7243 29.6166C39.8036 25.6294 34.1374 20.3531 30.1802 20.9226C27.0323 22.7214 28.6812 25.6294 28.6812 25.6893C28.6812 25.7373 29.1609 25.7093 29.4007 25.6893H32.5186L32.9083 25.9891C32.4886 26.4188 32.2248 27.3682 34.5272 27.7279Z" fill="url(#paint1_linear_0_15967)" id="Vector 1510"/>
<path d="M29.6094 23.4711H34.4961C34.5261 25.4497 34.4961 27.3084 34.5261 28.4177C33.7106 27.8421 32.7473 27.4283 32.3975 27.3084V25.6895H29.3996L29.6094 23.4711Z" fill="var(--fill-0, white)" id="Vector 1508"/>
<path d="M21.1562 29.7368C22.6432 28.7534 24.5739 28.0479 25.3533 27.8181C24.4239 26.2292 23.8664 22.9674 27.9915 20.8329C23.2847 22.5117 20.7366 26.3491 21.1562 29.7368Z" fill="url(#paint2_linear_0_15967)" id="Vector 1511"/>
</g>
</g>
<defs>
<radialGradient cx="0" cy="0" gradientTransform="translate(30 30) rotate(90) scale(30)" gradientUnits="userSpaceOnUse" id="paint0_radial_0_15967" r="1">
<stop offset="0.375" stop-color="white"/>
<stop offset="1" stop-color="white" stop-opacity="0"/>
</radialGradient>
<linearGradient gradientUnits="userSpaceOnUse" id="paint1_linear_0_15967" x1="33.554" x2="33.554" y1="20.8801" y2="29.6166">
<stop stop-color="#1DBF98"/>
<stop offset="1" stop-color="#1DBF98"/>
</linearGradient>
<linearGradient gradientUnits="userSpaceOnUse" id="paint2_linear_0_15967" x1="24.5515" x2="24.5515" y1="20.8329" y2="29.7368">
<stop stop-color="#1DBF98"/>
<stop offset="1" stop-color="#1DBF98" stop-opacity="0.5"/>
</linearGradient>
</defs>
</svg>