<?xml version="1.0" encoding="utf-8"?>
<svg xmlns="http://www.w3.org/2000/svg" fill="none" height="100%" overflow="visible" preserveAspectRatio="none" style="display: block;" viewBox="0 0 116 116" width="100%">
<g id="Frame 1000008496">
<rect fill="url(#paint0_radial_0_15890)" height="116" width="116"/>
<g id="Group 1000008207">
<g id="Group 1000008199">
<path d="M76.2773 64.9461L61.1714 64.9849L52.913 58.0853L76.2773 64.9461Z" fill="var(--fill-0, #09696E)" id="Vector 1205"/>
<path d="M61.1334 45.3111H76.2777V50.9763H61.1334V45.3111Z" fill="var(--fill-0, #1DBF98)" id="Rectangle 3761"/>
<path d="M39.6845 45.3109H45.2964V50.9761H39.6845V45.3109Z" fill="var(--fill-0, #1DBF98)" id="Rectangle 3764"/>
<path d="M39.6844 55.4783H45.2963V70.6115H39.6844V55.4783Z" fill="var(--fill-0, #1DBF98)" id="Rectangle 3765"/>
<path d="M52.913 58.2005L61.133 45.3111V50.976L52.913 58.2005Z" fill="var(--fill-0, #ACEED6)" id="Vector 1202"/>
<path d="M53.1426 58.2005L45.2962 45.3111V50.976L53.1426 58.2005Z" fill="var(--fill-0, #ACEED6)" id="Vector 1207"/>
<path d="M61.133 50.976L52.913 58.2004L76.2773 50.976H61.133Z" fill="var(--fill-0, #09696E)" id="Vector 1204"/>
<path d="M45.2962 50.976L53.1426 58.2004L39.7228 50.976H45.2962Z" fill="var(--fill-0, #09696E)" id="Vector 1208"/>
<path d="M61.0946 64.9455H76.2774V70.6107H61.0946V64.9455Z" fill="var(--fill-0, #1DBF98)" id="Rectangle 3763"/>
<path d="M61.1714 64.9849V70.6889L52.913 58.0853L61.1714 64.9849Z" fill="var(--fill-0, #ACEED6)" id="Vector 1203"/>
<path d="M45.2965 55.4783V70.6115L53.0278 58.0852L45.2965 55.4783Z" fill="var(--fill-0, #ACEED6)" id="Vector 1209"/>
<rect fill="var(--fill-0, #1DBF98)" height="5.66523" id="Rectangle 3762" width="15.2212" x="61.0946" y="55.4783"/>
<path d="M52.7975 58.0852L61.094 55.4783V61.1436L52.7975 58.0852Z" fill="var(--fill-0, #ACEED6)" id="Vector 1201"/>
</g>
</g>
</g>
<defs>
<radialGradient cx="0" cy="0" gradientTransform="translate(58 58) rotate(90) scale(58)" gradientUnits="userSpaceOnUse" id="paint0_radial_0_15890" r="1">
<stop offset="0.375" stop-color="white"/>
<stop offset="1" stop-color="white" stop-opacity="0"/>
</radialGradient>
</defs>
</svg>