<?xml version="1.0" encoding="utf-8"?>
<svg xmlns="http://www.w3.org/2000/svg" fill="none" height="100%" overflow="visible" preserveAspectRatio="none" style="display: block;" viewBox="0 0 20 20" width="100%">
<g id="vuesax/outline/arrow-down">
<g id="arrow-down">
<path d="M10 17.7083C9.84167 17.7083 9.68333 17.65 9.55833 17.525L4.5 12.4667C4.25833 12.225 4.25833 11.825 4.5 11.5833C4.74167 11.3417 5.14167 11.3417 5.38333 11.5833L10 16.2L14.6167 11.5833C14.8583 11.3417 15.2583 11.3417 15.5 11.5833C15.7417 11.825 15.7417 12.225 15.5 12.4667L10.4417 17.525C10.3167 17.65 10.1583 17.7083 10 17.7083Z" fill="var(--fill-0, #1DBF98)" id="Vector"/>
<path d="M10 17.5667C9.65833 17.5667 9.375 17.2833 9.375 16.9417V2.91667C9.375 2.575 9.65833 2.29167 10 2.29167C10.3417 2.29167 10.625 2.575 10.625 2.91667V16.9417C10.625 17.2833 10.3417 17.5667 10 17.5667Z" fill="var(--fill-0, #1DBF98)" id="Vector_2"/>
<g id="Vector_3" opacity="0">
</g>
</g>
</g>
</svg>