<?xml version="1.0" encoding="utf-8"?>
<svg xmlns="http://www.w3.org/2000/svg" fill="none" height="100%" overflow="visible" preserveAspectRatio="none" style="display: block;" viewBox="0 0 40 40" width="100%">
<g id="vuesax/outline/wallet-3">
<g id="wallet-3">
<path d="M21.6667 19.8334H11.6667C10.9833 19.8334 10.4167 19.2667 10.4167 18.5834C10.4167 17.9 10.9833 17.3334 11.6667 17.3334H21.6667C22.35 17.3334 22.9167 17.9 22.9167 18.5834C22.9167 19.2667 22.35 19.8334 21.6667 19.8334Z" fill="var(--fill-0, #1DBF98)" id="Vector"/>
<path d="M3.33333 19.8335C2.65 19.8335 2.08333 19.2668 2.08333 18.5835V10.8835C2.08333 6.80015 5.4 3.48348 9.48334 3.48348H18.85C23.1333 3.48348 26.25 6.33348 26.25 10.2501C26.25 10.9335 25.6833 11.5001 25 11.5001C24.3167 11.5001 23.75 10.9335 23.75 10.2501C23.75 7.31681 21.2 5.98348 18.85 5.98348H9.48334C6.78334 5.98348 4.58333 8.18348 4.58333 10.8835V18.5835C4.58333 19.2835 4.01667 19.8335 3.33333 19.8335Z" fill="var(--fill-0, #1DBF98)" id="Vector_2"/>
<path d="M26.6667 36.5H10C5.63333 36.5 2.08333 32.95 2.08333 28.5834V16.9167C2.08333 12.55 5.63333 9.00004 10 9.00004H26.6667C31.0333 9.00004 34.5833 12.55 34.5833 16.9167V19.3333C34.5833 20.0166 34.0167 20.5833 33.3333 20.5833H31.5333C30.95 20.5833 30.4167 20.8 30.0334 21.2L30.0167 21.2166C29.4667 21.7666 29.25 22.5333 29.45 23.2833C29.7 24.2166 30.6833 24.9 31.7833 24.9H33.3333C34.0167 24.9 34.5833 25.4667 34.5833 26.15V28.5667C34.5833 32.95 31.0333 36.5 26.6667 36.5ZM10 11.5C7.01667 11.5 4.58333 13.9334 4.58333 16.9167V28.5834C4.58333 31.5667 7.01667 34 10 34H26.6667C29.65 34 32.0833 31.5667 32.0833 28.5834V27.4167H31.7833C29.5333 27.4167 27.5833 26 27.0333 23.95C26.6 22.3333 27.0667 20.6166 28.25 19.45C29.1167 18.5666 30.2833 18.0833 31.5333 18.0833H32.0833V16.9167C32.0833 13.9334 29.65 11.5 26.6667 11.5H10V11.5Z" fill="var(--fill-0, #1DBF98)" id="Vector_3"/>
<path d="M34.9498 27.4167H31.7331C29.2165 27.4167 27.0832 25.55 26.8832 23.15C26.7499 21.7667 27.2499 20.4166 28.2499 19.4333C29.0832 18.5666 30.2665 18.0833 31.5165 18.0833H34.9332C36.5666 18.0833 37.8998 19.4 37.8998 21.0333V24.4667C37.9165 26.1 36.5831 27.4167 34.9498 27.4167ZM31.5332 20.5833C30.9498 20.5833 30.4165 20.8 30.0332 21.2C29.5499 21.6666 29.3165 22.3 29.3832 22.9333C29.4665 24.0333 30.5331 24.9167 31.7331 24.9167H34.9498C35.1998 24.9167 35.4165 24.7167 35.4165 24.4667V21.0333C35.4165 20.7833 35.1998 20.5833 34.9498 20.5833H31.5332V20.5833Z" fill="var(--fill-0, #1DBF98)" id="Vector_4"/>
<g id="Vector_5" opacity="0">
</g>
</g>
</g>
</svg>