<?xml version="1.0" encoding="utf-8"?>
<svg xmlns="http://www.w3.org/2000/svg" fill="none" height="100%" overflow="visible" preserveAspectRatio="none" style="display: block;" viewBox="0 0 40 40" width="100%">
<g id="Group">
<path clip-rule="evenodd" d="M18.0934 21.9073C16.1434 19.9573 14.6734 17.7739 13.6967 15.5589C13.49 15.0906 13.6117 14.5423 13.9734 14.1806L15.3384 12.8173C16.4567 11.6989 16.4567 10.1173 15.48 9.1406L13.5234 7.18393C12.2217 5.88227 10.1117 5.88227 8.81004 7.18393L7.72337 8.2706C6.48837 9.5056 5.97337 11.2873 6.30671 13.0539C7.13004 17.4089 9.66004 22.1773 13.7417 26.2589C17.8234 30.3406 22.5917 32.8706 26.9467 33.6939C28.7134 34.0273 30.495 33.5123 31.73 32.2773L32.815 31.1923C34.1167 29.8906 34.1167 27.7806 32.815 26.4789L30.86 24.5239C29.8834 23.5473 28.3 23.5473 27.325 24.5239L25.82 26.0306C25.4584 26.3923 24.91 26.5139 24.4417 26.3073C22.2267 25.3289 20.0434 23.8573 18.0934 21.9073Z" fill-rule="evenodd" id="Path" stroke="var(--stroke-0, #1DBF98)" stroke-linecap="round" stroke-linejoin="round" stroke-width="2.5"/>
<g id="Path_2">
</g>
</g>
</svg>