<?xml version="1.0" encoding="utf-8"?>
<svg xmlns="http://www.w3.org/2000/svg" fill="none" height="100%" overflow="visible" preserveAspectRatio="none" style="display: block;" viewBox="0 0 76 76" width="100%">
<g id="Frame 1000008499">
<rect fill="url(#paint0_radial_0_15833)" height="76" width="76"/>
<g id="Group 1000007345" opacity="0.3">
<g id="Vector">
<path d="M30.6871 28.2178C36.0897 28.2178 40.4694 32.5974 40.4694 38C40.4694 38.0458 40.4689 38.0915 40.4682 38.1371L36.2805 37.9195C36.2374 34.8669 33.75 32.4055 30.6871 32.4055C27.5974 32.4055 25.0927 34.9103 25.0927 38C25.0927 41.0897 27.5974 43.5945 30.6871 43.5945C32.4544 43.5945 34.2653 42.6363 35.2905 41.3567C35.7701 42.8911 36.4123 43.9828 37.3045 45.0969C35.5723 46.6531 33.1991 47.7822 30.6871 47.7822C25.2846 47.7822 20.9049 43.4026 20.9049 38C20.9049 32.5974 25.2846 28.2178 30.6871 28.2178Z" fill="url(#paint1_linear_0_15833)"/>
<path d="M38.3291 31.8927C39.679 33.5687 39.9434 34.4516 40.4229 37.041C40.4694 37.2916 40.4806 37.6188 40.4806 37.855C40.4806 40.9074 43.0111 43.3819 46.1328 43.3819C48.3979 43.3819 50.0634 42.4572 50.9651 40.5761C52.2687 41.2107 53.6349 41.8629 54.7591 42.4116C53.1653 45.6569 50.0606 47.5189 46.1328 47.5189C40.6744 47.5189 36.2794 43.2016 36.2794 37.8644C36.2795 35.6005 36.9957 33.5399 38.3291 31.8927Z" fill="url(#paint2_linear_0_15833)"/>
</g>
<path d="M39.3875 30.8216C40.5485 29.7467 41.953 28.9695 43.4805 28.5567C45.0079 28.1438 46.6127 28.1076 48.1572 28.4512C49.7017 28.7948 51.1398 29.5079 52.3482 30.5294C53.5565 31.5509 54.4991 32.8502 55.095 34.316L51.2155 35.8931C50.8747 35.0548 50.3357 34.3117 49.6446 33.7276C48.9536 33.1434 48.2589 32.73 47.3756 32.5335C46.4923 32.337 45.4467 32.3632 44.5732 32.5994C43.2517 32.9171 42.2854 33.9327 41.6214 34.5475C41.6214 34.5475 41.0985 33.3269 40.6623 32.5994C40.2261 31.8718 39.3875 30.8216 39.3875 30.8216Z" fill="var(--fill-0, #1DBF98)" id="Ellipse 4299"/>
</g>
</g>
<defs>
<radialGradient cx="0" cy="0" gradientTransform="translate(38 38) rotate(90) scale(38)" gradientUnits="userSpaceOnUse" id="paint0_radial_0_15833" r="1">
<stop offset="0.375" stop-color="white"/>
<stop offset="1" stop-color="white" stop-opacity="0"/>
</radialGradient>
<linearGradient gradientUnits="userSpaceOnUse" id="paint1_linear_0_15833" x1="24.6452" x2="48.5253" y1="34.9311" y2="43.3706">
<stop offset="0.485838" stop-color="#1DBF98"/>
<stop offset="1" stop-color="#8BF8DD"/>
</linearGradient>
<linearGradient gradientUnits="userSpaceOnUse" id="paint2_linear_0_15833" x1="24.6452" x2="48.5253" y1="34.9311" y2="43.3706">
<stop offset="0.485838" stop-color="#1DBF98"/>
<stop offset="1" stop-color="#8BF8DD"/>
</linearGradient>
</defs>
</svg>