<?xml version="1.0" encoding="utf-8"?>
<svg xmlns="http://www.w3.org/2000/svg" fill="none" height="100%" overflow="visible" preserveAspectRatio="none" style="display: block;" viewBox="0 0 32.2042 32.3112" width="100%">
<g id="Group 1000007870">
<path d="M17.9137 14.7057C29.8395 20.9456 21.9553 31.1381 16.5837 32.1556H15.1516C17.249 31.6469 21.7041 29.3066 21.6483 24.2701C21.5971 19.6546 19.0595 19.2369 12.9007 15.1636C2.51648 8.29551 12.3893 0.155603 15.1516 0.155603H16.2258C13.5657 0.867845 5.17635 8.04114 17.9137 14.7057Z" fill="var(--fill-0, white)" id="Vector 1507" stroke="var(--stroke-0, white)" stroke-width="0.311206"/>
<path d="M13.8097 0.337537C13.2859 0.579323 12.7062 0.931148 12.1251 1.37269C10.9638 2.25525 9.78313 3.5059 9.01572 4.97914C8.24737 6.45427 7.89074 8.15943 8.39365 9.93812C8.89639 11.7158 10.2512 13.5427 12.8575 15.276C14.3935 16.2975 15.7053 17.0911 16.8038 17.775C17.9047 18.4605 18.788 19.035 19.4806 19.6227C20.1705 20.2083 20.6663 20.8038 20.9942 21.5299C21.3226 22.2573 21.4885 23.1277 21.5011 24.2692C21.5282 26.7397 20.4573 28.548 19.1192 29.8043C17.7777 31.0638 16.1704 31.765 15.1485 32.0143L15.1632 32.1383C6.70732 31.6553 0.000174508 24.69 9.76563e-05 16.1666C9.76563e-05 8.09265 6.01863 1.41618 13.8409 0.323865C13.8306 0.328561 13.82 0.332759 13.8097 0.337537ZM16.2823 0.168591C25.092 0.264702 32.2042 7.38992 32.2042 16.1666C32.2041 24.5618 25.6967 31.4451 17.421 32.112C18.5732 31.7277 19.7795 30.9843 20.8517 29.9987C22.1707 28.7859 23.2996 27.1967 23.8829 25.4371C24.4669 23.6755 24.5042 21.7401 23.6349 19.8473C22.7661 17.956 20.9994 16.1239 18.0089 14.5504C14.8516 12.8893 13.0224 11.2052 12.0831 9.61586C11.1471 8.03192 11.0884 6.53146 11.4933 5.21156C11.8999 3.88613 12.7764 2.7347 13.7208 1.86879C14.6676 1.00075 15.6659 0.434925 16.296 0.265271L16.2823 0.168591Z" fill="var(--fill-0, black)" id="Subtract"/>
<path d="M13.8097 0.337537C13.2859 0.579323 12.7062 0.931148 12.1251 1.37269C10.9638 2.25525 9.78313 3.5059 9.01572 4.97914C8.24737 6.45427 7.89074 8.15943 8.39365 9.93812C8.89639 11.7158 10.2512 13.5427 12.8575 15.276C14.3935 16.2975 15.7053 17.0911 16.8038 17.775C17.9047 18.4605 18.788 19.035 19.4806 19.6227C20.1705 20.2083 20.6663 20.8038 20.9942 21.5299C21.3226 22.2573 21.4885 23.1277 21.5011 24.2692C21.5282 26.7397 20.4573 28.548 19.1192 29.8043C17.7777 31.0638 16.1704 31.765 15.1485 32.0143L15.1632 32.1383C6.70732 31.6553 0.000174508 24.69 9.76563e-05 16.1666C9.76563e-05 8.09265 6.01863 1.41618 13.8409 0.323865C13.8306 0.328561 13.82 0.332759 13.8097 0.337537ZM16.2823 0.168591C25.092 0.264702 32.2042 7.38992 32.2042 16.1666C32.2041 24.5618 25.6967 31.4451 17.421 32.112C18.5732 31.7277 19.7795 30.9843 20.8517 29.9987C22.1707 28.7859 23.2996 27.1967 23.8829 25.4371C24.4669 23.6755 24.5042 21.7401 23.6349 19.8473C22.7661 17.956 20.9994 16.1239 18.0089 14.5504C14.8516 12.8893 13.0224 11.2052 12.0831 9.61586C11.1471 8.03192 11.0884 6.53146 11.4933 5.21156C11.8999 3.88613 12.7764 2.7347 13.7208 1.86879C14.6676 1.00075 15.6659 0.434925 16.296 0.265271L16.2823 0.168591Z" fill="var(--fill-0, #0A6EC1)" id="Subtract_2"/>
<path d="M16.2438 0.167517C25.0535 0.263731 32.1647 7.38891 32.1647 16.1656C32.1647 24.5586 25.6612 31.4402 17.3884 32.1099C18.5388 31.7251 19.7429 30.9825 20.8132 29.9986C22.1322 28.7859 23.2611 27.1965 23.8444 25.437C24.4284 23.6754 24.4657 21.74 23.5964 19.8472C22.7276 17.956 20.9609 16.1238 17.9704 14.5503C14.8131 12.8892 12.984 11.205 12.0446 9.61576C11.1086 8.03187 11.0499 6.53134 11.4548 5.21146C11.8614 3.88605 12.738 2.73459 13.6823 1.86869C14.6291 1.00064 15.6274 0.434828 16.2575 0.265173L16.2438 0.167517Z" fill="var(--fill-0, #74C02E)" id="Subtract_3"/>
<path d="M17.0206 27.2238H8.71482C8.66387 23.8607 8.71482 20.7015 8.66387 18.8161C10.0499 19.7945 11.6872 20.4977 12.2817 20.7015V23.4531H17.3772L17.0206 27.2238Z" fill="var(--fill-0, white)" id="Vector 1509"/>
<path d="M23.796 12.2934C27.7094 12.9049 30.1824 14.6883 30.9297 15.5036C32.7642 8.72654 23.1334 -0.241492 16.4074 0.726535C11.0571 3.78386 13.8597 8.72653 13.8597 8.82844C13.8597 8.90997 14.675 8.86241 15.0826 8.82844H20.382L21.0444 9.338C20.331 10.0684 19.8826 11.6819 23.796 12.2934Z" fill="url(#paint0_linear_0_16060)" id="Vector 1510"/>
<path d="M15.4386 5.05844H23.7444C23.7953 8.42149 23.7444 11.5807 23.7953 13.4661C22.4093 12.4877 20.772 11.7845 20.1775 11.5807V8.82914H15.0819L15.4386 5.05844Z" fill="var(--fill-0, white)" id="Vector 1508"/>
<path d="M1.07077 15.708C3.59816 14.0367 6.87968 12.8375 8.20453 12.4469C6.6248 9.74623 5.67722 4.20228 12.6886 0.574255C4.6885 3.42776 0.357488 9.95005 1.07077 15.708Z" fill="url(#paint1_linear_0_16060)" id="Vector 1511"/>
</g>
<defs>
<linearGradient gradientUnits="userSpaceOnUse" id="paint0_linear_0_16060" x1="22.142" x2="22.142" y1="0.654334" y2="15.5036">
<stop stop-color="#A7DE6B"/>
<stop offset="1" stop-color="#7BC640"/>
</linearGradient>
<linearGradient gradientUnits="userSpaceOnUse" id="paint1_linear_0_16060" x1="6.84162" x2="6.84162" y1="0.574255" y2="15.708">
<stop stop-color="#4394D1"/>
<stop offset="1" stop-color="#4394D1" stop-opacity="0.5"/>
</linearGradient>
</defs>
</svg>