<?xml version="1.0" encoding="utf-8"?>
<svg xmlns="http://www.w3.org/2000/svg" fill="none" height="100%" overflow="visible" preserveAspectRatio="none" style="display: block;" viewBox="0 0 76 76" width="100%">
<g id="Frame 1000008497">
<rect fill="url(#paint0_radial_0_15954)" height="76" width="76"/>
<g id="Group 1000007870" opacity="0.3">
<path d="M39.3504 36.9195C48.238 41.5697 42.3624 49.1655 38.3592 49.9238H37.292C38.8551 49.5447 42.1752 47.8007 42.1336 44.0472C42.0955 40.6076 40.2043 40.2963 35.6146 37.2607C27.8759 32.1424 35.2334 26.0762 37.292 26.0762H38.0926C36.1102 26.607 29.8581 31.9528 39.3504 36.9195Z" fill="var(--fill-0, white)" id="Vector 1507" stroke="var(--stroke-0, white)" stroke-width="0.231922"/>
<path d="M36.2925 26.2115C35.9022 26.3917 35.4705 26.6541 35.0376 26.983C34.1721 27.6407 33.2912 28.5726 32.7192 29.6705C32.1467 30.7697 31.8809 32.0405 32.2554 33.3658C32.63 34.6907 33.64 36.0525 35.5825 37.3444C36.7272 38.1056 37.7043 38.6969 38.5229 39.2067C39.3435 39.7176 40.0019 40.1456 40.5181 40.5836C41.0324 41.0201 41.4025 41.4633 41.647 42.0045C41.8917 42.5466 42.0145 43.1957 42.0239 44.0465C42.0442 45.8875 41.2456 47.2343 40.2485 48.1705C39.2488 49.1092 38.0511 49.6322 37.2896 49.818L37.3003 49.9108C30.9988 49.5506 26.0005 44.3603 26.0005 38.0084C26.0006 31.9919 30.4852 27.0163 36.314 26.2018C36.3068 26.205 36.2996 26.2082 36.2925 26.2115ZM38.1353 26.0865C44.7003 26.1585 49.9994 31.468 49.9995 38.0084C49.9995 44.2666 45.1479 49.3977 38.978 49.8922C39.8385 49.6066 40.7398 49.0522 41.5405 48.316C42.5235 47.4123 43.3646 46.2278 43.7993 44.9166C44.2344 43.6038 44.2627 42.1611 43.6147 40.7506C42.9672 39.3412 41.6501 37.9759 39.4214 36.8033C37.0686 35.5654 35.7054 34.3109 35.0054 33.1266C34.3078 31.9461 34.2641 30.827 34.5659 29.8434C34.869 28.856 35.5225 27.9983 36.2261 27.3531C36.9315 26.7064 37.6754 26.2843 38.145 26.1578L38.1353 26.0865Z" fill="var(--fill-0, black)" id="Subtract"/>
<path d="M36.2925 26.2115C35.9022 26.3917 35.4705 26.6541 35.0376 26.983C34.1721 27.6407 33.2912 28.5726 32.7192 29.6705C32.1467 30.7697 31.8809 32.0405 32.2554 33.3658C32.63 34.6907 33.64 36.0525 35.5825 37.3444C36.7272 38.1056 37.7043 38.6969 38.5229 39.2067C39.3435 39.7176 40.0019 40.1456 40.5181 40.5836C41.0324 41.0201 41.4025 41.4633 41.647 42.0045C41.8917 42.5466 42.0145 43.1957 42.0239 44.0465C42.0442 45.8875 41.2456 47.2343 40.2485 48.1705C39.2488 49.1092 38.0511 49.6322 37.2896 49.818L37.3003 49.9108C30.9988 49.5506 26.0005 44.3603 26.0005 38.0084C26.0006 31.9919 30.4852 27.0163 36.314 26.2018C36.3068 26.205 36.2996 26.2082 36.2925 26.2115ZM38.1353 26.0865C44.7003 26.1585 49.9994 31.468 49.9995 38.0084C49.9995 44.2666 45.1479 49.3977 38.978 49.8922C39.8385 49.6066 40.7398 49.0522 41.5405 48.316C42.5235 47.4123 43.3646 46.2278 43.7993 44.9166C44.2344 43.6038 44.2627 42.1611 43.6147 40.7506C42.9672 39.3412 41.6501 37.9759 39.4214 36.8033C37.0686 35.5654 35.7054 34.3109 35.0054 33.1266C34.3078 31.9461 34.2641 30.827 34.5659 29.8434C34.869 28.856 35.5225 27.9983 36.2261 27.3531C36.9315 26.7064 37.6754 26.2843 38.145 26.1578L38.1353 26.0865Z" fill="var(--fill-0, #1DBF98)" id="Subtract_2"/>
<path d="M38.1039 26.0854C44.6701 26.156 49.971 31.466 49.9711 38.0073C49.9711 44.2651 45.1199 49.396 38.9506 49.8911C39.8099 49.6051 40.7096 49.051 41.5092 48.3159C42.4922 47.4121 43.3333 46.2278 43.768 44.9165C44.2031 43.6036 44.2314 42.1611 43.5834 40.7505C42.9359 39.3411 41.6188 37.9758 39.3901 36.8032C37.0373 35.5653 35.6741 34.3108 34.974 33.1265C34.2765 31.946 34.2328 30.8269 34.5346 29.8433C34.8377 28.8558 35.4912 27.9982 36.1947 27.353C36.9003 26.7062 37.6441 26.2842 38.1137 26.1577L38.1039 26.0854Z" fill="var(--fill-0, #1DBF98)" id="Subtract_3"/>
<path d="M38.6834 46.2483H32.4936C32.4557 43.742 32.4936 41.3877 32.4557 39.9826C33.4886 40.7117 34.7088 41.2358 35.1518 41.3877V43.4383H38.9492L38.6834 46.2483Z" fill="var(--fill-0, white)" id="Vector 1509"/>
<path d="M43.7345 35.1221C46.6509 35.5778 48.4939 36.9069 49.0508 37.5144C50.4179 32.4639 43.2407 25.7806 38.2283 26.502C34.241 28.7804 36.3296 32.4639 36.3296 32.5399C36.3296 32.6006 36.9371 32.5652 37.2409 32.5399H41.1902L41.6839 32.9196C41.1522 33.4639 40.8181 34.6664 43.7345 35.1221Z" fill="url(#paint1_linear_0_15954)" id="Vector 1510"/>
<path d="M37.5057 29.73H43.6954C43.7334 32.2363 43.6954 34.5907 43.7334 35.9957C42.7005 35.2666 41.4803 34.7426 41.0372 34.5907V32.5401H37.2398L37.5057 29.73Z" fill="var(--fill-0, white)" id="Vector 1508"/>
<path d="M26.7976 37.6666C28.6811 36.4211 31.1267 35.5274 32.114 35.2363C30.9367 33.2237 30.2305 29.0921 35.4557 26.3884C29.4937 28.5149 26.2661 33.3756 26.7976 37.6666Z" fill="url(#paint2_linear_0_15954)" id="Vector 1511"/>
</g>
</g>
<defs>
<radialGradient cx="0" cy="0" gradientTransform="translate(38 38) rotate(90) scale(38)" gradientUnits="userSpaceOnUse" id="paint0_radial_0_15954" r="1">
<stop offset="0.375" stop-color="white"/>
<stop offset="1" stop-color="white" stop-opacity="0"/>
</radialGradient>
<linearGradient gradientUnits="userSpaceOnUse" id="paint1_linear_0_15954" x1="42.5018" x2="42.5018" y1="26.4482" y2="37.5144">
<stop stop-color="#1DBF98"/>
<stop offset="1" stop-color="#1DBF98"/>
</linearGradient>
<linearGradient gradientUnits="userSpaceOnUse" id="paint2_linear_0_15954" x1="31.0983" x2="31.0983" y1="26.3884" y2="37.6666">
<stop stop-color="#1DBF98"/>
<stop offset="1" stop-color="#1DBF98" stop-opacity="0.5"/>
</linearGradient>
</defs>
</svg>