<?xml version="1.0" encoding="utf-8"?>
<svg xmlns="http://www.w3.org/2000/svg" fill="none" height="100%" overflow="visible" preserveAspectRatio="none" style="display: block;" viewBox="0 0 70 70" width="100%">
<g id="Frame 1000008497">
<rect fill="url(#paint0_radial_0_15898)" height="70" width="70"/>
<g id="Group 1000007870">
<path d="M36.2438 34.0049C44.4297 38.288 39.018 45.2842 35.3309 45.9826H34.3479C35.7876 45.6334 38.8456 44.027 38.8073 40.5699C38.7721 37.4019 37.0303 37.1151 32.8029 34.3192C25.6751 29.6049 32.4518 24.0177 34.3479 24.0177H35.0853C33.2594 24.5066 27.5009 29.4303 36.2438 34.0049Z" fill="var(--fill-0, white)" id="Vector 1507" stroke="var(--stroke-0, white)" stroke-width="0.213613"/>
<path d="M33.4272 24.1415C33.0677 24.3075 32.6699 24.5494 32.271 24.8525C31.4738 25.4583 30.663 26.3167 30.1362 27.3281C29.6088 28.3406 29.3643 29.5115 29.7095 30.7324C30.0546 31.9525 30.9841 33.2068 32.7729 34.3964C33.8273 35.0976 34.7278 35.6418 35.4819 36.1113C36.2377 36.5818 36.8444 36.9754 37.3198 37.3789C37.7935 37.7809 38.1337 38.1899 38.3589 38.6884C38.5843 39.1877 38.6979 39.7856 38.7065 40.5693C38.7251 42.265 37.9893 43.5058 37.0708 44.3681C36.1499 45.2325 35.0475 45.7146 34.3462 45.8857L34.3559 45.9697C28.5518 45.6381 23.9477 40.8582 23.9477 35.0078C23.9478 29.4694 28.0739 24.891 33.438 24.1367C33.4344 24.1383 33.4308 24.1399 33.4272 24.1415ZM35.1245 24.0283C41.1713 24.0945 46.0522 28.9836 46.0522 35.0078C46.0522 40.7678 41.5897 45.4881 35.9126 45.9492C36.7016 45.6848 37.5273 45.1757 38.2612 44.5009C39.1664 43.6686 39.9409 42.5785 40.3413 41.371C40.7421 40.1619 40.768 38.8333 40.1714 37.5341C39.575 36.2359 38.3619 34.9774 36.3091 33.8974C34.142 32.7572 32.8864 31.6016 32.2417 30.5107C31.5993 29.4235 31.5594 28.3932 31.8374 27.4873C32.1166 26.5776 32.7185 25.7876 33.3667 25.1933C34.0164 24.5977 34.7008 24.2093 35.1333 24.0927L35.1245 24.0283Z" fill="var(--fill-0, black)" id="Subtract"/>
<path d="M33.4272 24.1415C33.0677 24.3075 32.6699 24.5494 32.271 24.8525C31.4738 25.4583 30.663 26.3167 30.1362 27.3281C29.6088 28.3406 29.3643 29.5115 29.7095 30.7324C30.0546 31.9525 30.9841 33.2068 32.7729 34.3964C33.8273 35.0976 34.7278 35.6418 35.4819 36.1113C36.2377 36.5818 36.8444 36.9754 37.3198 37.3789C37.7935 37.7809 38.1337 38.1899 38.3589 38.6884C38.5843 39.1877 38.6979 39.7856 38.7065 40.5693C38.7251 42.265 37.9893 43.5058 37.0708 44.3681C36.1499 45.2325 35.0475 45.7146 34.3462 45.8857L34.3559 45.9697C28.5518 45.6381 23.9477 40.8582 23.9477 35.0078C23.9478 29.4694 28.0739 24.891 33.438 24.1367C33.4344 24.1383 33.4308 24.1399 33.4272 24.1415ZM35.1245 24.0283C41.1713 24.0945 46.0522 28.9836 46.0522 35.0078C46.0522 40.7678 41.5897 45.4881 35.9126 45.9492C36.7016 45.6848 37.5273 45.1757 38.2612 44.5009C39.1664 43.6686 39.9409 42.5785 40.3413 41.371C40.7421 40.1619 40.768 38.8333 40.1714 37.5341C39.575 36.2359 38.3619 34.9774 36.3091 33.8974C34.142 32.7572 32.8864 31.6016 32.2417 30.5107C31.5993 29.4235 31.5594 28.3932 31.8374 27.4873C32.1166 26.5776 32.7185 25.7876 33.3667 25.1933C34.0164 24.5977 34.7008 24.2093 35.1333 24.0927L35.1245 24.0283Z" fill="var(--fill-0, #1DBF98)" id="Subtract_2"/>
<path d="M35.0947 24.027C41.1425 24.0919 46.025 28.9817 46.0254 35.0065C46.0254 40.7668 41.5621 45.4881 35.8847 45.9489C36.6731 45.6844 37.498 45.1749 38.2314 44.5006C39.1365 43.6683 39.9111 42.5782 40.3115 41.3708C40.7122 40.1617 40.7382 38.833 40.1416 37.5338C39.5451 36.2358 38.3319 34.9771 36.2793 33.8971C34.1125 32.757 32.8565 31.6012 32.2119 30.5104C31.5698 29.4234 31.5297 28.3928 31.8076 27.487C32.0868 26.5775 32.6888 25.7872 33.3369 25.193C33.9864 24.5976 34.671 24.2091 35.1035 24.0924L35.0947 24.027Z" fill="var(--fill-0, #1DBF98)" id="Subtract_3"/>
<path d="M35.6295 42.5971H29.9285C29.8935 40.2887 29.9285 38.1202 29.8935 36.8261C30.8448 37.4976 31.9687 37.9803 32.3768 38.1202V40.0089H35.8744L35.6295 42.5971Z" fill="var(--fill-0, white)" id="Vector 1509"/>
<path d="M40.2818 32.3495C42.9679 32.7692 44.6654 33.9934 45.1784 34.553C46.4375 29.9012 39.827 23.7455 35.2102 24.41C31.5378 26.5085 33.4614 29.9012 33.4614 29.9711C33.4614 30.0271 34.0211 29.9945 34.3009 29.9711H37.9384L38.3931 30.3209C37.9034 30.8222 37.5956 31.9298 40.2818 32.3495Z" fill="url(#paint1_linear_0_15898)" id="Vector 1510"/>
<path d="M34.5447 27.3831H40.2458C40.2807 29.6915 40.2458 31.8601 40.2807 33.1542C39.3294 32.4826 38.2055 32 37.7974 31.8601V29.9713H34.2998L34.5447 27.3831Z" fill="var(--fill-0, white)" id="Vector 1508"/>
<path d="M24.6821 34.693C26.4169 33.5458 28.6694 32.7227 29.5788 32.4546C28.4944 30.6009 27.844 26.7955 32.6566 24.3052C27.1654 26.2638 24.1925 30.7408 24.6821 34.693Z" fill="url(#paint2_linear_0_15898)" id="Vector 1511"/>
</g>
</g>
<defs>
<radialGradient cx="0" cy="0" gradientTransform="translate(35 35) rotate(90) scale(35)" gradientUnits="userSpaceOnUse" id="paint0_radial_0_15898" r="1">
<stop offset="0.375" stop-color="white"/>
<stop offset="1" stop-color="white" stop-opacity="0"/>
</radialGradient>
<linearGradient gradientUnits="userSpaceOnUse" id="paint1_linear_0_15898" x1="39.1464" x2="39.1464" y1="24.3604" y2="34.553">
<stop stop-color="#1DBF98"/>
<stop offset="1" stop-color="#1DBF98"/>
</linearGradient>
<linearGradient gradientUnits="userSpaceOnUse" id="paint2_linear_0_15898" x1="28.6433" x2="28.6433" y1="24.3052" y2="34.693">
<stop stop-color="#1DBF98"/>
<stop offset="1" stop-color="#1DBF98" stop-opacity="0.5"/>
</linearGradient>
</defs>
</svg>