<?xml version="1.0" encoding="utf-8"?>
<svg xmlns="http://www.w3.org/2000/svg" fill="none" height="100%" overflow="visible" preserveAspectRatio="none" style="display: block;" viewBox="0 0 31.6509 32" width="100%">
<g id="Group 1000007205">
<g id="Group 1000007204">
<path d="M9.25502e-07 1.88053e-05C10.4448 1.88053e-05 20.8896 1.88053e-05 31.6509 1.88053e-05C31.6509 10.56 31.6509 21.12 31.6509 32C21.2061 32 10.7613 32 9.25502e-07 32C9.25502e-07 21.44 9.25502e-07 10.88 9.25502e-07 1.88053e-05ZM21.0396 10.5434C21.0396 13.9616 21.0396 17.3799 21.0396 20.9017C22.0899 19.9916 22.0767 20.0377 23.0376 19.0805C23.1889 18.9298 23.7924 18.3251 23.9482 18.1699C24.091 18.0258 24.791 17.3363 24.9381 17.1879C25.0679 17.0574 25.1977 16.9269 25.3315 16.7925C25.6533 16.4885 25.7227 16.3984 25.9972 16.121C26.1547 15.9617 26.361 15.7581 26.4525 15.6656C26.794 15.3242 26.7201 15.4054 27.1354 14.9827C27.2817 14.8358 27.4401 14.6787 27.5908 14.5274C27.9653 14.1793 27.9769 14.1432 28.1599 13.9582C28.3429 13.7732 28.2046 13.9155 28.3876 13.7306C28.5705 13.5456 28.6322 13.5029 28.7236 13.4104C28.9066 13.2254 28.8318 13.3011 28.9981 13.133C29.0896 13.0405 29.096 13.034 29.181 12.948C29.4555 12.6705 29.364 12.763 29.5469 12.578C29.7299 12.3931 29.8187 12.2994 29.9811 12.137C30.2088 11.9093 30.3978 11.639 30.5503 11.454C31.0077 10.8991 31.0056 10.9987 31.102 10.7283C31.102 10.6673 31.102 10.6063 31.102 10.5434C27.7814 10.5434 24.4608 10.5434 21.0396 10.5434ZM10.6113 21.2717C10.6113 24.69 10.6113 28.1082 10.6113 31.6301C10.8528 31.4469 11.0943 31.2638 11.3431 31.0752C11.3431 30.9531 11.6175 31.016 11.6175 30.8902C11.8892 30.7986 11.6148 30.6136 11.892 30.5202C11.892 30.3982 12.1664 30.461 12.1664 30.3353C12.4381 30.2437 12.1636 30.0587 12.4408 29.9653C12.6908 29.662 12.9339 29.3529 13.1726 29.0405C13.4748 28.729 13.7799 28.4217 14.0874 28.1156C14.3237 27.878 14.5598 27.6402 14.7958 27.4023C14.9276 27.2696 15.0594 27.137 15.1952 27.0003C15.7873 26.4042 16.3788 25.8076 16.9704 25.211C17.2834 24.8954 17.5966 24.58 17.91 24.2648C18.3621 23.8099 18.8137 23.3545 19.2651 22.8989C19.4063 22.7571 19.5475 22.6153 19.693 22.4692C19.8219 22.3388 19.9508 22.2085 20.0836 22.0743C20.1979 21.9592 20.3121 21.8441 20.4298 21.7255C20.6943 21.4947 20.6943 21.4947 20.6737 21.2717C17.3531 21.2717 14.0325 21.2717 10.6113 21.2717ZM21.0396 21.2717C21.0396 24.69 21.0091 27.9659 21.0091 31.4878C21.1859 31.3455 21.3302 31.2601 21.6717 30.9186C21.8309 30.7595 22.0784 30.5119 22.2408 30.3495C22.405 30.1838 22.8701 29.7217 23.0376 29.5527C23.1536 29.4361 23.6011 28.9899 23.7206 28.8697C23.963 28.6256 24.1617 28.4313 24.4036 28.1868C24.7755 27.8111 25.0546 27.5364 25.428 27.1623C25.6641 26.9242 25.9889 26.6038 26.2248 26.3655C26.3369 26.2536 26.5647 26.0255 26.6801 25.9102C27.2344 25.3564 26.9649 25.6254 27.4769 25.1134C27.8184 24.7719 27.9647 24.6357 28.3876 24.2028C28.6871 23.8961 28.8429 23.7475 29.1844 23.406C29.6397 22.9507 29.6397 22.9507 30.2088 22.3815C30.6641 21.9262 30.6641 21.9262 30.8918 21.6985C31.0056 21.5847 31.1194 21.4709 31.102 21.2717C27.7814 21.2717 24.4608 21.2717 21.0396 21.2717Z" fill="var(--fill-0, #185FA2)" id="Vector"/>
<path d="M21.0397 21.2717C21.0397 24.812 21.0397 28.3524 21.0397 32C17.538 32 14.1245 32 10.5166 32C10.5166 31.6016 10.5166 31.7439 10.5166 31.3739C10.5166 31.3739 10.6305 31.2601 10.7443 31.1463C10.8581 31.0324 10.8805 31.0111 10.9719 30.9186C11.2745 30.6691 11.4252 30.4918 11.8826 30.1218C12.0655 29.9368 12.0895 29.9164 12.2241 29.7803C12.407 29.5954 12.4472 29.5585 12.5655 29.4388C12.7485 29.2539 12.8379 29.1685 13.0209 28.9835C13.1411 28.8619 13.1794 28.827 13.3623 28.642C13.6368 28.3646 13.7262 28.2792 13.8176 28.1867C14.1836 27.8168 14.2705 27.7456 14.5617 27.4033C14.696 27.2664 14.8303 27.1294 14.9687 26.9883C15.1863 26.7695 15.1863 26.7695 15.4082 26.5462C15.5571 26.3954 15.7059 26.2445 15.8593 26.0891C16.1738 25.7708 16.4888 25.4531 16.8042 25.1357C17.2886 24.648 17.771 24.1583 18.2533 23.6683C18.5588 23.3597 18.8644 23.0512 19.1702 22.7428C19.3877 22.5217 19.3877 22.5217 19.6097 22.2961C19.744 22.1615 19.8783 22.0269 20.0167 21.8882C20.135 21.7688 20.2534 21.6495 20.3753 21.5265C20.6738 21.2717 20.6738 21.2717 21.0397 21.2717Z" fill="var(--fill-0, #CDDC28)" id="Vector_2"/>
</g>
</g>
</svg>