<?xml version="1.0" encoding="utf-8"?>
<svg xmlns="http://www.w3.org/2000/svg" fill="none" height="100%" overflow="visible" preserveAspectRatio="none" style="display: block;" viewBox="0 0 56 32.0456" width="100%">
<g id="Group 1000007345">
<g id="Vector">
<path d="M16.0227 0.000151457C24.8718 0.000151457 32.0454 7.17375 32.0454 16.0228C32.0454 16.0978 32.0445 16.1727 32.0435 16.2474L25.1842 15.8909C25.1137 10.8909 21.0394 6.85943 16.0227 6.85943C10.9619 6.85943 6.85928 10.962 6.85928 16.0228C6.85928 21.0836 10.9619 25.1862 16.0227 25.1862C18.9173 25.1862 21.8835 23.6168 23.5628 21.5208C24.3482 24.0342 25.4001 25.8222 26.8615 27.6471C24.0242 30.1961 20.1371 32.0455 16.0227 32.0455C7.1736 32.0455 0 24.8719 0 16.0228C0 7.17375 7.1736 0.000151457 16.0227 0.000151457Z" fill="url(#paint0_linear_0_16042)"/>
<path d="M28.5398 6.01944C30.7508 8.76461 31.1839 10.2107 31.9693 14.452C32.0454 14.8625 32.0638 15.3984 32.0638 15.7854C32.0638 20.7849 36.2086 24.838 41.3217 24.838C45.0318 24.838 47.7597 23.3235 49.2367 20.2423C51.372 21.2817 53.6097 22.35 55.451 23.2487C52.8406 28.5643 47.7552 31.6141 41.3217 31.6141C32.3813 31.6141 25.1825 24.5427 25.1825 15.8007C25.1825 12.0926 26.3557 8.71739 28.5398 6.01944Z" fill="url(#paint1_linear_0_16042)"/>
</g>
<path d="M30.272 4.26495C32.1738 2.50433 34.4743 1.23131 36.9761 0.555067C39.478 -0.121172 42.1065 -0.180441 44.6363 0.382344C47.1661 0.945128 49.5216 2.11317 51.5008 3.78628C53.4801 5.45939 55.0239 7.58763 55.9999 9.98845L49.6456 12.5717C49.0874 11.1987 48.2045 9.98153 47.0726 9.02468C45.9407 8.06782 44.8029 7.39068 43.3561 7.06883C41.9093 6.74697 40.1967 6.79 38.7659 7.17675C36.6014 7.69717 35.0186 9.36072 33.931 10.3676C33.931 10.3676 33.0746 8.36836 32.3601 7.17675C31.6456 5.98513 30.272 4.26495 30.272 4.26495Z" fill="var(--fill-0, #1DBF98)" id="Ellipse 4299"/>
</g>
<defs>
<linearGradient gradientUnits="userSpaceOnUse" id="paint0_linear_0_16042" x1="6.12632" x2="45.2405" y1="10.9961" y2="24.8196">
<stop offset="0.485838" stop-color="#1DBF98"/>
<stop offset="1" stop-color="#8BF8DD"/>
</linearGradient>
<linearGradient gradientUnits="userSpaceOnUse" id="paint1_linear_0_16042" x1="6.12632" x2="45.2405" y1="10.9961" y2="24.8196">
<stop offset="0.485838" stop-color="#1DBF98"/>
<stop offset="1" stop-color="#8BF8DD"/>
</linearGradient>
</defs>
</svg>