<?xml version="1.0" encoding="utf-8"?>
<svg xmlns="http://www.w3.org/2000/svg" fill="none" height="100%" overflow="visible" preserveAspectRatio="none" style="display: block;" viewBox="0 0 44.8 25.6365" width="100%">
<g id="Group 1000007345">
<g id="Vector">
<path d="M12.8181 0.000128416C19.8974 0.000128416 25.6363 5.73901 25.6363 12.8183C25.6363 12.8783 25.6356 12.9381 25.6348 12.9979L20.1474 12.7127C20.0909 8.71276 16.8315 5.48755 12.8181 5.48755C8.76951 5.48755 5.48742 8.76964 5.48742 12.8183C5.48742 16.8669 8.76951 20.149 12.8181 20.149C15.1339 20.149 17.5068 18.8934 18.8502 17.2167C19.4785 19.2273 20.3201 20.6578 21.4892 22.1177C19.2193 24.1569 16.1097 25.6364 12.8181 25.6364C5.73888 25.6364 0 19.8975 0 12.8183C0 5.73901 5.73888 0.000128416 12.8181 0.000128416Z" fill="url(#paint0_linear_0_15967)"/>
<path d="M22.8318 4.81556C24.6006 7.0117 24.9471 8.16855 25.5755 11.5616C25.6363 11.89 25.651 12.3187 25.651 12.6283C25.651 16.6279 28.9669 19.8704 33.0573 19.8704C36.0254 19.8704 38.2078 18.6588 39.3893 16.1939C41.0976 17.0254 42.8877 17.88 44.3608 18.599C42.2725 22.8515 38.2042 25.2913 33.0573 25.2913C25.905 25.2913 20.146 19.6341 20.146 12.6405C20.146 9.6741 21.0846 6.97392 22.8318 4.81556Z" fill="url(#paint1_linear_0_15967)"/>
</g>
<path d="M24.2175 3.41196C25.7389 2.00346 27.5793 0.985045 29.5808 0.444054C31.5823 -0.0969372 33.6851 -0.144353 35.709 0.305875C37.7328 0.756102 39.6172 1.69053 41.2006 3.02902C42.784 4.36751 44.019 6.0701 44.7999 7.99076L39.7164 10.0574C39.2699 8.95893 38.5636 7.98522 37.658 7.21974C36.7525 6.45426 35.8422 5.91255 34.6848 5.65506C33.5273 5.39758 32.1573 5.432 31.0127 5.7414C29.2811 6.15773 28.0148 7.48857 27.1447 8.29409C27.1447 8.29409 26.4596 6.69469 25.888 5.7414C25.3164 4.7881 24.2175 3.41196 24.2175 3.41196Z" fill="var(--fill-0, #1DBF98)" id="Ellipse 4299"/>
</g>
<defs>
<linearGradient gradientUnits="userSpaceOnUse" id="paint0_linear_0_15967" x1="4.90105" x2="36.1924" y1="8.79689" y2="19.8557">
<stop offset="0.485838" stop-color="#1DBF98"/>
<stop offset="1" stop-color="#8BF8DD"/>
</linearGradient>
<linearGradient gradientUnits="userSpaceOnUse" id="paint1_linear_0_15967" x1="4.90105" x2="36.1924" y1="8.79689" y2="19.8557">
<stop offset="0.485838" stop-color="#1DBF98"/>
<stop offset="1" stop-color="#8BF8DD"/>
</linearGradient>
</defs>
</svg>