<?xml version="1.0" encoding="utf-8"?>
<svg xmlns="http://www.w3.org/2000/svg" fill="none" height="100%" overflow="visible" preserveAspectRatio="none" style="display: block;" viewBox="0 0 20 20" width="100%">
<g id="vuesax/outline/arrow-left">
<g id="arrow-left">
<path d="M7.97536 15.6833C7.81702 15.6833 7.65869 15.625 7.53369 15.5L2.47536 10.4417C2.23369 10.2 2.23369 9.8 2.47536 9.55833L7.53369 4.5C7.77536 4.25833 8.17536 4.25833 8.41703 4.5C8.65869 4.74166 8.65869 5.14166 8.41703 5.38333L3.80036 10L8.41703 14.6167C8.65869 14.8583 8.65869 15.2583 8.41703 15.5C8.30036 15.625 8.13369 15.6833 7.97536 15.6833Z" fill="var(--fill-0, #1DBF98)" id="Vector"/>
<path d="M17.0833 10.625H3.05833C2.71667 10.625 2.43333 10.3417 2.43333 10C2.43333 9.65833 2.71667 9.375 3.05833 9.375H17.0833C17.425 9.375 17.7083 9.65833 17.7083 10C17.7083 10.3417 17.425 10.625 17.0833 10.625Z" fill="var(--fill-0, #1DBF98)" id="Vector_2"/>
<g id="Vector_3" opacity="0">
</g>
</g>
</g>
</svg>