<?xml version="1.0" encoding="utf-8"?>
<svg xmlns="http://www.w3.org/2000/svg" fill="none" height="100%" overflow="visible" preserveAspectRatio="none" style="display: block;" viewBox="0 0 76 76" width="100%">
<g id="Frame 1000008496">
<rect fill="url(#paint0_radial_0_14620)" height="76" width="76"/>
<g id="Vector" opacity="0.3">
<path d="M45.1197 28.3557C45.9131 27.5362 47.2261 27.5097 48.0524 28.2965C48.8787 29.0834 48.9054 30.3856 48.112 31.2051L30.8465 49.0397C30.0531 49.8593 28.7401 49.8857 27.9138 49.0989C27.0875 48.312 27.0608 47.0098 27.8541 46.1903L45.1197 28.3557Z" fill="#1DBF98"/>
<path d="M30.5995 31.8605C31.4052 31.0529 32.7185 31.0461 33.5327 31.8452C34.347 32.6443 34.3539 33.9468 33.5482 34.7543L29.5485 38.7632C28.7428 39.5708 27.4295 39.5777 26.6153 38.7786C25.801 37.9795 25.7941 36.677 26.5998 35.8694L30.5995 31.8605Z" fill="var(--fill-0, #1DBF98)"/>
<path d="M46.4515 39.7445C47.2572 38.9369 48.5705 38.93 49.3847 39.7291C50.199 40.5283 50.2059 41.8307 49.4002 42.6383L42.6642 49.3898C41.8585 50.1974 40.5452 50.2042 39.731 49.4051C38.9167 48.606 38.9098 47.3035 39.7155 46.496L46.4515 39.7445Z" fill="#1DBF98"/>
<path d="M39.2365 28.1091C39.2365 29.2739 38.2844 30.2182 37.11 30.2182C35.9355 30.2182 34.9834 29.2739 34.9834 28.1091C34.9834 26.9443 35.9355 26 37.11 26C38.2844 26 39.2365 26.9443 39.2365 28.1091Z" fill="var(--fill-0, #1DBF98)"/>
</g>
</g>
<defs>
<radialGradient cx="0" cy="0" gradientTransform="translate(38 38) rotate(90) scale(38)" gradientUnits="userSpaceOnUse" id="paint0_radial_0_14620" r="1">
<stop offset="0.375" stop-color="white"/>
<stop offset="1" stop-color="white" stop-opacity="0"/>
</radialGradient>
</defs>
</svg>