<?xml version="1.0" encoding="utf-8"?>
<svg xmlns="http://www.w3.org/2000/svg" fill="none" height="100%" overflow="visible" preserveAspectRatio="none" style="display: block;" viewBox="0 0 60 60" width="100%">
<g id="Frame 1000008496">
<rect fill="url(#paint0_radial_0_14632)" height="60" width="60"/>
<g id="Vector" opacity="0.3">
<path d="M35.3398 22.7668C35.9348 22.1521 36.9196 22.1323 37.5393 22.7224C38.159 23.3125 38.1791 24.2892 37.584 24.9039L24.6348 38.2798C24.0398 38.8944 23.0551 38.9143 22.4353 38.3242C21.8156 37.734 21.7956 36.7573 22.3906 36.1427L35.3398 22.7668Z" fill="#1DBF98"/>
<path d="M24.4496 25.3954C25.0539 24.7897 26.0388 24.7845 26.6495 25.3839C27.2602 25.9832 27.2654 26.9601 26.6611 27.5658L23.6614 30.5724C23.0571 31.1781 22.0721 31.1833 21.4614 30.5839C20.8507 29.9846 20.8456 29.0077 21.4498 28.4021L24.4496 25.3954Z" fill="var(--fill-0, #1DBF98)"/>
<path d="M36.3386 31.3084C36.9429 30.7027 37.9279 30.6975 38.5386 31.2969C39.1493 31.8962 39.1544 32.873 38.5502 33.4787L33.4982 38.5423C32.8939 39.148 31.9089 39.1532 31.2982 38.5538C30.6875 37.9545 30.6823 36.9777 31.2866 36.372L36.3386 31.3084Z" fill="#1DBF98"/>
<path d="M30.9274 22.5818C30.9274 23.4554 30.2133 24.1636 29.3325 24.1636C28.4516 24.1636 27.7376 23.4554 27.7376 22.5818C27.7376 21.7082 28.4516 21 29.3325 21C30.2133 21 30.9274 21.7082 30.9274 22.5818Z" fill="var(--fill-0, #1DBF98)"/>
</g>
</g>
<defs>
<radialGradient cx="0" cy="0" gradientTransform="translate(30 30) rotate(90) scale(30)" gradientUnits="userSpaceOnUse" id="paint0_radial_0_14632" r="1">
<stop offset="0.375" stop-color="white"/>
<stop offset="1" stop-color="white" stop-opacity="0"/>
</radialGradient>
</defs>
</svg>