<?xml version="1.0" encoding="utf-8"?>
<svg xmlns="http://www.w3.org/2000/svg" fill="none" height="100%" overflow="visible" preserveAspectRatio="none" style="display: block;" viewBox="0 0 60 60" width="100%">
<g id="Frame 1000008497">
<rect fill="url(#paint0_radial_0_16018)" height="60" width="60"/>
<g id="Group 1000007870" opacity="0.3">
<path d="M31.066 29.1471C38.0825 32.8183 33.4439 38.815 30.2835 39.4136H29.441C30.675 39.1143 33.2961 37.7375 33.2633 34.7742C33.2332 32.0588 31.7401 31.813 28.1167 29.4164C22.0072 25.3757 27.8158 20.5866 29.4409 20.5866H30.073C28.5079 21.0056 23.5721 25.226 31.066 29.1471Z" fill="var(--fill-0, white)" id="Vector 1507" stroke="var(--stroke-0, white)" stroke-width="0.183097"/>
<path d="M28.6514 20.6932C28.3432 20.8354 28.0021 21.0427 27.6602 21.3025C26.977 21.8218 26.2825 22.5579 25.8311 23.4246C25.3791 24.2923 25.1691 25.2953 25.4648 26.3416C25.7606 27.3875 26.5575 28.4624 28.0908 29.4822C28.9946 30.0833 29.7667 30.5505 30.4131 30.9529C31.0607 31.3562 31.5808 31.6941 31.9883 32.0398C32.3942 32.3843 32.686 32.7347 32.8789 33.1619C33.0721 33.5898 33.1693 34.1018 33.1768 34.7732C33.1928 36.2268 32.5627 37.2909 31.7754 38.0301C30.9861 38.7711 30.0406 39.1842 29.4395 39.3309L29.4473 39.4031C24.4724 39.1188 20.5264 35.0212 20.5264 30.0066C20.5264 25.259 24.0637 21.3343 28.6621 20.6883C28.6585 20.6899 28.6549 20.6915 28.6514 20.6932ZM30.1064 20.5955C35.2894 20.6523 39.4736 24.8431 39.4736 30.0066C39.4736 34.947 35.6431 38.9958 30.7725 39.3865C31.4514 39.1608 32.1631 38.7253 32.7949 38.1443C33.571 37.4308 34.2349 36.496 34.5781 35.4607C34.9217 34.4242 34.9442 33.2854 34.4326 32.1717C33.9214 31.0589 32.8817 29.9812 31.1221 29.0555C29.2644 28.0781 28.1884 27.0873 27.6357 26.1521C27.0852 25.2204 27.0509 24.3378 27.2891 23.5613C27.5284 22.7815 28.044 22.104 28.5996 21.5945C29.1566 21.0838 29.7435 20.751 30.1143 20.6512L30.1064 20.5955Z" fill="var(--fill-0, black)" id="Subtract"/>
<path d="M28.6514 20.6932C28.3432 20.8354 28.0021 21.0427 27.6602 21.3025C26.977 21.8218 26.2825 22.5579 25.8311 23.4246C25.3791 24.2923 25.1691 25.2953 25.4648 26.3416C25.7606 27.3875 26.5575 28.4624 28.0908 29.4822C28.9946 30.0833 29.7667 30.5505 30.4131 30.9529C31.0607 31.3562 31.5808 31.6941 31.9883 32.0398C32.3942 32.3843 32.686 32.7347 32.8789 33.1619C33.0721 33.5898 33.1693 34.1018 33.1768 34.7732C33.1928 36.2268 32.5627 37.2909 31.7754 38.0301C30.9861 38.7711 30.0406 39.1842 29.4395 39.3309L29.4473 39.4031C24.4724 39.1188 20.5264 35.0212 20.5264 30.0066C20.5264 25.259 24.0637 21.3343 28.6621 20.6883C28.6585 20.6899 28.6549 20.6915 28.6514 20.6932ZM30.1064 20.5955C35.2894 20.6523 39.4736 24.8431 39.4736 30.0066C39.4736 34.947 35.6431 38.9958 30.7725 39.3865C31.4514 39.1608 32.1631 38.7253 32.7949 38.1443C33.571 37.4308 34.2349 36.496 34.5781 35.4607C34.9217 34.4242 34.9442 33.2854 34.4326 32.1717C33.9214 31.0589 32.8817 29.9812 31.1221 29.0555C29.2644 28.0781 28.1884 27.0873 27.6357 26.1521C27.0852 25.2204 27.0509 24.3378 27.2891 23.5613C27.5284 22.7815 28.044 22.104 28.5996 21.5945C29.1566 21.0838 29.7435 20.751 30.1143 20.6512L30.1064 20.5955Z" fill="var(--fill-0, #1DBF98)" id="Subtract_2"/>
<path d="M30.0818 20.5949C35.2654 20.6509 39.4499 24.842 39.45 30.006C39.45 34.9459 35.6206 38.9934 30.7508 39.3849C31.4286 39.1588 32.1396 38.7245 32.7703 38.1447C33.5463 37.4312 34.2103 36.4962 34.5535 35.4611C34.8971 34.4246 34.9195 33.2857 34.408 32.172C33.8968 31.0593 32.8568 29.9815 31.0974 29.0558C29.24 28.0785 28.1637 27.0875 27.6111 26.1525C27.0606 25.2207 27.0263 24.3381 27.2644 23.5617C27.5037 22.7819 28.0194 22.1043 28.575 21.5949C29.1318 21.0844 29.7189 20.7514 30.0896 20.6515L30.0818 20.5949Z" fill="var(--fill-0, #1DBF98)" id="Subtract_3"/>
<path d="M30.5395 36.512H25.6529C25.6229 34.5334 25.6529 32.6747 25.6229 31.5654C26.4384 32.141 27.4017 32.5547 27.7515 32.6747V34.2935H30.7494L30.5395 36.512Z" fill="var(--fill-0, white)" id="Vector 1509"/>
<path d="M34.5271 27.7282C36.8295 28.088 38.2845 29.1372 38.7242 29.6169C39.8035 25.6297 34.1373 20.3534 30.1801 20.9229C27.0322 22.7217 28.6811 25.6297 28.6811 25.6896C28.6811 25.7376 29.1608 25.7096 29.4006 25.6896H32.5185L32.9082 25.9894C32.4885 26.4191 32.2247 27.3685 34.5271 27.7282Z" fill="url(#paint1_linear_0_16018)" id="Vector 1510"/>
<path d="M29.6093 23.471H34.496C34.5259 25.4497 34.496 27.3084 34.5259 28.4176C33.7105 27.842 32.7472 27.4283 32.3974 27.3084V25.6895H29.3995L29.6093 23.471Z" fill="var(--fill-0, white)" id="Vector 1508"/>
<path d="M21.1562 29.7371C22.6432 28.7538 24.5739 28.0483 25.3533 27.8184C24.4239 26.2295 23.8664 22.9678 27.9915 20.8332C23.2847 22.5121 20.7366 26.3494 21.1562 29.7371Z" fill="url(#paint2_linear_0_16018)" id="Vector 1511"/>
</g>
</g>
<defs>
<radialGradient cx="0" cy="0" gradientTransform="translate(30 30) rotate(90) scale(30)" gradientUnits="userSpaceOnUse" id="paint0_radial_0_16018" r="1">
<stop offset="0.375" stop-color="white"/>
<stop offset="1" stop-color="white" stop-opacity="0"/>
</radialGradient>
<linearGradient gradientUnits="userSpaceOnUse" id="paint1_linear_0_16018" x1="33.5539" x2="33.5539" y1="20.8804" y2="29.6169">
<stop stop-color="#1DBF98"/>
<stop offset="1" stop-color="#1DBF98"/>
</linearGradient>
<linearGradient gradientUnits="userSpaceOnUse" id="paint2_linear_0_16018" x1="24.5515" x2="24.5515" y1="20.8332" y2="29.7371">
<stop stop-color="#1DBF98"/>
<stop offset="1" stop-color="#1DBF98" stop-opacity="0.5"/>
</linearGradient>
</defs>
</svg>