<?xml version="1.0" encoding="utf-8"?>
<svg xmlns="http://www.w3.org/2000/svg" fill="none" height="100%" overflow="visible" preserveAspectRatio="none" style="display: block;" viewBox="0 0 24 24" width="100%">
<g id="vuesax/outline/arrow-left">
<g id="arrow-left">
<path d="M9.57043 18.82C9.38043 18.82 9.19043 18.75 9.04043 18.6L2.97043 12.53C2.68043 12.24 2.68043 11.76 2.97043 11.47L9.04043 5.4C9.33043 5.11 9.81043 5.11 10.1004 5.4C10.3904 5.69 10.3904 6.17 10.1004 6.46L4.56043 12L10.1004 17.54C10.3904 17.83 10.3904 18.31 10.1004 18.6C9.96043 18.75 9.76043 18.82 9.57043 18.82Z" fill="var(--fill-0, #1DBF98)" id="Vector"/>
<path d="M20.5 12.75H3.67C3.26 12.75 2.92 12.41 2.92 12C2.92 11.59 3.26 11.25 3.67 11.25H20.5C20.91 11.25 21.25 11.59 21.25 12C21.25 12.41 20.91 12.75 20.5 12.75Z" fill="var(--fill-0, #1DBF98)" id="Vector_2"/>
<g id="Vector_3" opacity="0">
</g>
</g>
</g>
</svg>