<?xml version="1.0" encoding="utf-8"?>
<svg xmlns="http://www.w3.org/2000/svg" fill="none" height="100%" overflow="visible" preserveAspectRatio="none" style="display: block;" viewBox="0 0 70 70" width="100%">
<g id="Frame 1000008499">
<rect fill="url(#paint0_radial_0_16082)" height="70" width="70"/>
<g id="Group 1000007345">
<g id="Vector">
<path d="M28.0867 25.7523C33.1941 25.7523 37.3344 29.8927 37.3344 35C37.3344 35.0433 37.334 35.0865 37.3334 35.1296L33.3744 34.9239C33.3337 32.0381 30.9822 29.7112 28.0867 29.7112C25.1658 29.7112 22.798 32.0791 22.798 35C22.798 37.9209 25.1658 40.2888 28.0867 40.2888C29.7574 40.2888 31.4694 39.383 32.4386 38.1732C32.8919 39.6239 33.499 40.6558 34.3425 41.7091C32.7049 43.1803 30.4615 44.2477 28.0867 44.2477C22.9794 44.2477 18.839 40.1074 18.839 35C18.839 29.8927 22.9794 25.7523 28.0867 25.7523Z" fill="url(#paint1_linear_0_16082)"/>
<path d="M35.3111 29.2264C36.5872 30.8108 36.8372 31.6455 37.2905 34.0934C37.3344 34.3303 37.345 34.6396 37.345 34.863C37.345 37.7485 39.7373 40.0878 42.6884 40.0878C44.8297 40.0878 46.4042 39.2137 47.2566 37.4354C48.489 38.0352 49.7805 38.6518 50.8433 39.1705C49.3366 42.2385 46.4016 43.9987 42.6884 43.9987C37.5283 43.9987 33.3735 39.9173 33.3735 34.8718C33.3735 32.7316 34.0506 30.7836 35.3111 29.2264Z" fill="url(#paint2_linear_0_16082)"/>
</g>
<path d="M36.3115 28.2139C37.4091 27.1977 38.7369 26.463 40.1809 26.0727C41.6249 25.6824 43.142 25.6482 44.6021 25.973C46.0622 26.2978 47.4217 26.9719 48.564 27.9376C49.7063 28.9032 50.5974 30.1316 51.1607 31.5173L47.4933 33.0082C47.1711 32.2157 46.6615 31.5133 46.0082 30.961C45.3549 30.4087 44.6982 30.0179 43.8631 29.8322C43.0281 29.6464 42.0397 29.6712 41.2139 29.8944C39.9646 30.1948 39.0511 31.1549 38.4233 31.7361C38.4233 31.7361 37.9291 30.5822 37.5167 29.8944C37.1043 29.2067 36.3115 28.2139 36.3115 28.2139Z" fill="var(--fill-0, #1DBF98)" id="Ellipse 4299"/>
</g>
</g>
<defs>
<radialGradient cx="0" cy="0" gradientTransform="translate(35 35) rotate(90) scale(35)" gradientUnits="userSpaceOnUse" id="paint0_radial_0_16082" r="1">
<stop offset="0.375" stop-color="white"/>
<stop offset="1" stop-color="white" stop-opacity="0"/>
</radialGradient>
<linearGradient gradientUnits="userSpaceOnUse" id="paint1_linear_0_16082" x1="22.3749" x2="44.9502" y1="32.0988" y2="40.0772">
<stop offset="0.485838" stop-color="#1DBF98"/>
<stop offset="1" stop-color="#8BF8DD"/>
</linearGradient>
<linearGradient gradientUnits="userSpaceOnUse" id="paint2_linear_0_16082" x1="22.3749" x2="44.9502" y1="32.0988" y2="40.0772">
<stop offset="0.485838" stop-color="#1DBF98"/>
<stop offset="1" stop-color="#8BF8DD"/>
</linearGradient>
</defs>
</svg>