<?xml version="1.0" encoding="utf-8"?>
<svg xmlns="http://www.w3.org/2000/svg" fill="none" height="100%" overflow="visible" preserveAspectRatio="none" style="display: block;" viewBox="0 0 76 76" width="100%">
<g id="Frame 1000008496">
<rect fill="url(#paint0_radial_0_15876)" height="76" width="76"/>
<g id="Group 1000008207" opacity="0.3">
<g id="Group 1000008199">
<path d="M49.9746 42.5509L40.0776 42.5763L34.6669 38.0559L49.9746 42.5509Z" fill="var(--fill-0, #09696E)" id="Vector 1205"/>
<path d="M40.0527 29.6866H49.9748V33.3983H40.0527V29.6866Z" fill="var(--fill-0, #1DBF98)" id="Rectangle 3761"/>
<path d="M26.0002 29.6865H29.6769V33.3982H26.0002V29.6865Z" fill="var(--fill-0, #1DBF98)" id="Rectangle 3764"/>
<path d="M26 36.3479H29.6767V46.2627H26V36.3479Z" fill="var(--fill-0, #1DBF98)" id="Rectangle 3765"/>
<path d="M34.6669 38.1314L40.0524 29.6866V33.3981L34.6669 38.1314Z" fill="var(--fill-0, #ACEED6)" id="Vector 1202"/>
<path d="M34.8172 38.1314L29.6765 29.6866V33.3981L34.8172 38.1314Z" fill="var(--fill-0, #ACEED6)" id="Vector 1207"/>
<path d="M40.0524 33.3981L34.6669 38.1314L49.9746 33.3981H40.0524Z" fill="var(--fill-0, #09696E)" id="Vector 1204"/>
<path d="M29.6765 33.3981L34.8172 38.1314L26.0249 33.3981H29.6765Z" fill="var(--fill-0, #09696E)" id="Vector 1208"/>
<path d="M40.0274 42.5505H49.9748V46.2622H40.0274V42.5505Z" fill="var(--fill-0, #1DBF98)" id="Rectangle 3763"/>
<path d="M40.0776 42.5763V46.3135L34.6669 38.0559L40.0776 42.5763Z" fill="var(--fill-0, #ACEED6)" id="Vector 1203"/>
<path d="M29.6767 36.3479V46.2627L34.7421 38.0558L29.6767 36.3479Z" fill="var(--fill-0, #ACEED6)" id="Vector 1209"/>
<rect fill="var(--fill-0, #1DBF98)" height="3.7117" id="Rectangle 3762" width="9.97252" x="40.0274" y="36.3479"/>
<path d="M34.5912 38.0558L40.0269 36.3479V40.0596L34.5912 38.0558Z" fill="var(--fill-0, #ACEED6)" id="Vector 1201"/>
</g>
</g>
</g>
<defs>
<radialGradient cx="0" cy="0" gradientTransform="translate(38 38) rotate(90) scale(38)" gradientUnits="userSpaceOnUse" id="paint0_radial_0_15876" r="1">
<stop offset="0.375" stop-color="white"/>
<stop offset="1" stop-color="white" stop-opacity="0"/>
</radialGradient>
</defs>
</svg>