<?xml version="1.0" encoding="utf-8"?>
<svg xmlns="http://www.w3.org/2000/svg" fill="none" height="100%" overflow="visible" preserveAspectRatio="none" style="display: block;" viewBox="0 0 60 60" width="100%">
<g id="Frame 1000008497">
<rect fill="url(#paint0_radial_0_15818)" height="60" width="60"/>
<g id="Group 1000007870" opacity="0.3">
<path d="M31.0661 29.147C38.0826 32.8182 33.444 38.8149 30.2836 39.4135H29.4411C30.6751 39.1142 33.2962 37.7374 33.2634 34.7741C33.2333 32.0587 31.7402 31.8129 28.1168 29.4163C22.0073 25.3756 27.8159 20.5865 29.4411 20.5865H30.0731C28.5081 21.0055 23.5722 25.2259 31.0661 29.147Z" fill="var(--fill-0, white)" id="Vector 1507" stroke="var(--stroke-0, white)" stroke-width="0.183097"/>
<path d="M28.6516 20.6933C28.3434 20.8355 28.0023 21.0428 27.6604 21.3027C26.9772 21.8219 26.2827 22.558 25.8313 23.4247C25.3793 24.2925 25.1693 25.2954 25.465 26.3417C25.7608 27.3876 26.5577 28.4625 28.091 29.4823C28.9948 30.0834 29.7669 30.5506 30.4133 30.953C31.0609 31.3563 31.581 31.6942 31.9885 32.04C32.3944 32.3845 32.6862 32.7348 32.8791 33.162C33.0723 33.5899 33.1695 34.1018 33.177 34.7734C33.193 36.227 32.5629 37.291 31.7756 38.0302C30.9863 38.7712 30.0408 39.1843 29.4397 39.331L29.4475 39.4032C24.4727 39.1188 20.5266 35.0213 20.5266 30.0068C20.5266 25.2592 24.0639 21.3344 28.6623 20.6884C28.6587 20.69 28.6552 20.6916 28.6516 20.6933ZM30.1067 20.5956C35.2896 20.6524 39.4738 24.8432 39.4738 30.0068C39.4738 34.9472 35.6433 38.9959 30.7727 39.3866C31.4516 39.1609 32.1633 38.7254 32.7951 38.1444C33.5712 37.4309 34.2351 36.4961 34.5783 35.4609C34.9219 34.4243 34.9444 33.2855 34.4328 32.1718C33.9216 31.059 32.8819 29.9814 31.1223 29.0556C29.2645 28.0782 28.1886 27.0874 27.6359 26.1523C27.0853 25.2205 27.0511 24.3379 27.2893 23.5614C27.5285 22.7816 28.0442 22.1041 28.5998 21.5946C29.1568 21.0839 29.7437 20.7511 30.1145 20.6513L30.1067 20.5956Z" fill="var(--fill-0, black)" id="Subtract"/>
<path d="M28.6516 20.6933C28.3434 20.8355 28.0023 21.0428 27.6604 21.3027C26.9772 21.8219 26.2827 22.558 25.8313 23.4247C25.3793 24.2925 25.1693 25.2954 25.465 26.3417C25.7608 27.3876 26.5577 28.4625 28.091 29.4823C28.9948 30.0834 29.7669 30.5506 30.4133 30.953C31.0609 31.3563 31.581 31.6942 31.9885 32.04C32.3944 32.3845 32.6862 32.7348 32.8791 33.162C33.0723 33.5899 33.1695 34.1018 33.177 34.7734C33.193 36.227 32.5629 37.291 31.7756 38.0302C30.9863 38.7712 30.0408 39.1843 29.4397 39.331L29.4475 39.4032C24.4727 39.1188 20.5266 35.0213 20.5266 30.0068C20.5266 25.2592 24.0639 21.3344 28.6623 20.6884C28.6587 20.69 28.6552 20.6916 28.6516 20.6933ZM30.1067 20.5956C35.2896 20.6524 39.4738 24.8432 39.4738 30.0068C39.4738 34.9472 35.6433 38.9959 30.7727 39.3866C31.4516 39.1609 32.1633 38.7254 32.7951 38.1444C33.5712 37.4309 34.2351 36.4961 34.5783 35.4609C34.9219 34.4243 34.9444 33.2855 34.4328 32.1718C33.9216 31.059 32.8819 29.9814 31.1223 29.0556C29.2645 28.0782 28.1886 27.0874 27.6359 26.1523C27.0853 25.2205 27.0511 24.3379 27.2893 23.5614C27.5285 22.7816 28.0442 22.1041 28.5998 21.5946C29.1568 21.0839 29.7437 20.7511 30.1145 20.6513L30.1067 20.5956Z" fill="var(--fill-0, #1DBF98)" id="Subtract_2"/>
<path d="M30.0827 20.5947C35.2663 20.6508 39.4508 24.8418 39.4509 30.0059C39.4509 34.9458 35.6215 38.9933 30.7517 39.3848C31.4295 39.1587 32.1404 38.7244 32.7712 38.1446C33.5472 37.4311 34.2112 36.4961 34.5544 35.461C34.898 34.4245 34.9203 33.2855 34.4089 32.1719C33.8977 31.0592 32.8578 29.9814 31.0983 29.0557C29.2408 28.0784 28.1647 27.0874 27.612 26.1524C27.0614 25.2206 27.0272 24.338 27.2653 23.5615C27.5046 22.7817 28.0202 22.1042 28.5759 21.5947C29.1329 21.0841 29.7198 20.7512 30.0905 20.6514L30.0827 20.5947Z" fill="var(--fill-0, #1DBF98)" id="Subtract_3"/>
<path d="M30.5396 36.5118H25.653C25.623 34.5332 25.653 32.6745 25.623 31.5652C26.4385 32.1408 27.4018 32.5546 27.7516 32.6745V34.2934H30.7495L30.5396 36.5118Z" fill="var(--fill-0, white)" id="Vector 1509"/>
<path d="M34.5272 27.728C36.8296 28.0877 38.2846 29.137 38.7243 29.6167C39.8036 25.6294 34.1374 20.3531 30.1802 20.9226C27.0323 22.7214 28.6812 25.6294 28.6812 25.6894C28.6812 25.7373 29.1609 25.7094 29.4007 25.6894H32.5186L32.9083 25.9892C32.4886 26.4189 32.2248 27.3682 34.5272 27.728Z" fill="url(#paint1_linear_0_15818)" id="Vector 1510"/>
<path d="M29.6094 23.4711H34.4961C34.5261 25.4497 34.4961 27.3084 34.5261 28.4177C33.7106 27.8421 32.7473 27.4283 32.3975 27.3084V25.6895H29.3996L29.6094 23.4711Z" fill="var(--fill-0, white)" id="Vector 1508"/>
<path d="M21.1562 29.7368C22.6432 28.7535 24.5739 28.048 25.3533 27.8181C24.4239 26.2292 23.8664 22.9675 27.9915 20.8329C23.2847 22.5118 20.7366 26.3491 21.1562 29.7368Z" fill="url(#paint2_linear_0_15818)" id="Vector 1511"/>
</g>
</g>
<defs>
<radialGradient cx="0" cy="0" gradientTransform="translate(30 30) rotate(90) scale(30)" gradientUnits="userSpaceOnUse" id="paint0_radial_0_15818" r="1">
<stop offset="0.375" stop-color="white"/>
<stop offset="1" stop-color="white" stop-opacity="0"/>
</radialGradient>
<linearGradient gradientUnits="userSpaceOnUse" id="paint1_linear_0_15818" x1="33.554" x2="33.554" y1="20.8802" y2="29.6167">
<stop stop-color="#1DBF98"/>
<stop offset="1" stop-color="#1DBF98"/>
</linearGradient>
<linearGradient gradientUnits="userSpaceOnUse" id="paint2_linear_0_15818" x1="24.5515" x2="24.5515" y1="20.8329" y2="29.7368">
<stop stop-color="#1DBF98"/>
<stop offset="1" stop-color="#1DBF98" stop-opacity="0.5"/>
</linearGradient>
</defs>
</svg>