<?xml version="1.0" encoding="utf-8"?>
<svg xmlns="http://www.w3.org/2000/svg" fill="none" height="100%" overflow="visible" preserveAspectRatio="none" style="display: block;" viewBox="0 0 70 70" width="100%">
<g id="Frame 1000008498">
<rect fill="url(#paint0_radial_0_16366)" height="70" width="70"/>
<g id="Group 1000007205">
<g id="Group 1000007204">
<path d="M23.9473 23.8255C31.242 23.8255 38.5368 23.8255 46.0525 23.8255C46.0525 31.2007 46.0525 38.5759 46.0525 46.1746C38.7578 46.1746 31.4631 46.1746 23.9473 46.1746C23.9473 38.7994 23.9473 31.4242 23.9473 23.8255ZM38.6415 31.1891C38.6415 33.5764 38.6415 35.9637 38.6415 38.4234C39.375 37.7878 39.3658 37.82 40.037 37.1515C40.1426 37.0462 40.5641 36.6239 40.6729 36.5155C40.7727 36.4149 41.2615 35.9333 41.3643 35.8296C41.4549 35.7385 41.5456 35.6474 41.639 35.5535C41.8638 35.3412 41.9123 35.2783 42.1039 35.0845C42.214 34.9732 42.358 34.8311 42.4219 34.7665C42.6604 34.528 42.6088 34.5847 42.8989 34.2895C43.001 34.1869 43.1117 34.0772 43.2169 33.9715C43.4785 33.7284 43.4866 33.7032 43.6144 33.574C43.7422 33.4448 43.6456 33.5442 43.7734 33.415C43.9012 33.2858 43.9442 33.256 44.0081 33.1914C44.1359 33.0622 44.0837 33.1151 44.1998 32.9977C44.2637 32.9331 44.2682 32.9285 44.3276 32.8685C44.5192 32.6747 44.4553 32.7393 44.5831 32.6101C44.7109 32.4809 44.7729 32.4155 44.8864 32.302C45.0454 32.143 45.1774 31.9542 45.2839 31.825C45.6033 31.4375 45.6019 31.5071 45.6692 31.3182C45.6692 31.2756 45.6692 31.233 45.6692 31.1891C43.3501 31.1891 41.0309 31.1891 38.6415 31.1891ZM31.3583 38.6818C31.3583 41.0692 31.3583 43.4565 31.3583 45.9162C31.527 45.7883 31.6956 45.6604 31.8694 45.5286C31.8694 45.4434 32.0611 45.4873 32.0611 45.3994C32.2508 45.3355 32.0591 45.2063 32.2527 45.1411C32.2527 45.0558 32.4444 45.0997 32.4444 45.0119C32.6341 44.9479 32.4425 44.8188 32.6361 44.7535C32.8107 44.5417 32.9804 44.3258 33.1472 44.1076C33.3582 43.89 33.5713 43.6754 33.786 43.4617C33.9511 43.2957 34.116 43.1296 34.2808 42.9635C34.3729 42.8708 34.4649 42.7782 34.5598 42.6827C34.9733 42.2664 35.3864 41.8497 35.7995 41.4331C36.0182 41.2127 36.2369 40.9924 36.4558 40.7722C36.7715 40.4545 37.0869 40.1364 37.4022 39.8182C37.5008 39.7192 37.5994 39.6202 37.701 39.5181C37.7911 39.4271 37.8811 39.3361 37.9739 39.2423C38.0537 39.1619 38.1334 39.0816 38.2157 38.9987C38.4004 38.8376 38.4004 38.8376 38.386 38.6818C36.0668 38.6818 33.7477 38.6818 31.3583 38.6818ZM38.6415 38.6818C38.6415 41.0692 38.6202 43.3571 38.6202 45.8168C38.7437 45.7174 38.8445 45.6578 39.083 45.4193C39.1942 45.3082 39.367 45.1352 39.4805 45.0218C39.5951 44.9061 39.92 44.5834 40.037 44.4653C40.1179 44.3839 40.4305 44.0723 40.514 43.9883C40.6832 43.8179 40.822 43.6822 40.9909 43.5114C41.2507 43.249 41.4456 43.0571 41.7064 42.7959C41.8713 42.6296 42.0982 42.4058 42.2629 42.2394C42.3412 42.1612 42.5003 42.0019 42.5809 41.9214C42.968 41.5346 42.7798 41.7225 43.1374 41.3649C43.3759 41.1264 43.4781 41.0312 43.7734 40.7289C43.9826 40.5147 44.0914 40.4109 44.3299 40.1724C44.6479 39.8544 44.6479 39.8544 45.0454 39.4569C45.3634 39.1389 45.3634 39.1389 45.5224 38.9799C45.6019 38.9004 45.6814 38.8209 45.6692 38.6818C43.3501 38.6818 41.0309 38.6818 38.6415 38.6818Z" fill="var(--fill-0, #1DBF98)" id="Vector"/>
<path d="M38.6413 38.6819C38.6413 41.1545 38.6413 43.6271 38.6413 46.1747C36.1957 46.1747 33.8116 46.1747 31.2919 46.1747C31.2919 45.8964 31.2919 45.9958 31.2919 45.7374C31.2919 45.7374 31.3714 45.6579 31.4509 45.5784C31.5304 45.4989 31.546 45.484 31.6099 45.4194C31.8212 45.2451 31.9264 45.1213 32.2459 44.8629C32.3736 44.7337 32.3904 44.7194 32.4844 44.6244C32.6121 44.4952 32.6402 44.4695 32.7229 44.3859C32.8506 44.2567 32.9131 44.1971 33.0409 44.0679C33.1249 43.983 33.1516 43.9586 33.2794 43.8294C33.471 43.6357 33.5335 43.576 33.5973 43.5114C33.8529 43.2531 33.9136 43.2034 34.117 42.9643C34.2108 42.8687 34.3046 42.773 34.4013 42.6744C34.5532 42.5216 34.5532 42.5216 34.7082 42.3657C34.8122 42.2603 34.9162 42.155 35.0233 42.0464C35.2429 41.8242 35.4629 41.6022 35.6832 41.3806C36.0215 41.0399 36.3584 40.6979 36.6952 40.3558C36.9086 40.1402 37.1221 39.9247 37.3356 39.7093C37.4875 39.5549 37.4875 39.5549 37.6426 39.3974C37.7364 39.3034 37.8302 39.2094 37.9268 39.1125C38.0095 39.0291 38.0921 38.9458 38.1773 38.8599C38.3858 38.6819 38.3858 38.6819 38.6413 38.6819Z" fill="var(--fill-0, #1DBF98)" id="Vector_2"/>
</g>
</g>
</g>
<defs>
<radialGradient cx="0" cy="0" gradientTransform="translate(35 35) rotate(90) scale(35)" gradientUnits="userSpaceOnUse" id="paint0_radial_0_16366" r="1">
<stop offset="0.375" stop-color="white"/>
<stop offset="1" stop-color="white" stop-opacity="0"/>
</radialGradient>
</defs>
</svg>