<?xml version="1.0" encoding="utf-8"?>
<svg xmlns="http://www.w3.org/2000/svg" fill="none" height="100%" overflow="visible" preserveAspectRatio="none" style="display: block;" viewBox="0 0 76 76" width="100%">
<g id="Frame 1000008498">
<rect fill="url(#paint0_radial_0_15937)" height="76" width="76"/>
<g id="Group 1000007205" opacity="0.3">
<g id="Group 1000007204">
<path d="M25.9999 25.8676C33.9199 25.8676 41.8399 25.8676 49.9999 25.8676C49.9999 33.875 49.9999 41.8823 49.9999 50.1323C42.0799 50.1323 34.1599 50.1323 25.9999 50.1323C25.9999 42.125 25.9999 34.1176 25.9999 25.8676ZM41.9537 33.8624C41.9537 36.4543 41.9537 39.0463 41.9537 41.7168C42.75 41.0267 42.74 41.0616 43.4687 40.3358C43.5834 40.2216 44.041 39.7631 44.1592 39.6453C44.2675 39.5361 44.7982 39.0132 44.9098 38.9007C45.0082 38.8018 45.1066 38.7028 45.2081 38.6009C45.4521 38.3704 45.5047 38.3021 45.7128 38.0917C45.8323 37.9709 45.9887 37.8166 46.0581 37.7465C46.317 37.4875 46.261 37.5491 46.576 37.2286C46.6868 37.1172 46.807 36.9981 46.9212 36.8833C47.2052 36.6194 47.2141 36.592 47.3528 36.4518C47.4915 36.3115 47.3867 36.4194 47.5254 36.2791C47.6641 36.1389 47.7109 36.1065 47.7803 36.0364C47.919 35.8961 47.8623 35.9535 47.9884 35.826C48.0577 35.7559 48.0626 35.7509 48.1271 35.6857C48.3352 35.4753 48.2658 35.5455 48.4045 35.4052C48.5433 35.265 48.6106 35.1939 48.7338 35.0708C48.9064 34.8981 49.0497 34.6931 49.1654 34.5529C49.5122 34.1321 49.5106 34.2076 49.5837 34.0026C49.5837 33.9563 49.5837 33.9101 49.5837 33.8624C47.0658 33.8624 44.5479 33.8624 41.9537 33.8624ZM34.0462 41.9974C34.0462 44.5893 34.0462 47.1813 34.0462 49.8518C34.2293 49.713 34.4124 49.5741 34.6011 49.4311C34.6011 49.3385 34.8092 49.3862 34.8092 49.2908C35.0152 49.2214 34.8071 49.0811 35.0173 49.0103C35.0173 48.9177 35.2253 48.9654 35.2253 48.87C35.4314 48.8006 35.2233 48.6603 35.4334 48.5895C35.623 48.3595 35.8073 48.1251 35.9884 47.8882C36.2175 47.652 36.4488 47.419 36.682 47.1869C36.8612 47.0067 37.0402 46.8264 37.2192 46.646C37.3191 46.5454 37.4191 46.4449 37.522 46.3412C37.971 45.8892 38.4195 45.4368 38.8681 44.9844C39.1055 44.7451 39.3429 44.506 39.5806 44.267C39.9234 43.922 40.2658 43.5767 40.6081 43.2312C40.7152 43.1237 40.8223 43.0161 40.9326 42.9054C41.0303 42.8066 41.1281 42.7077 41.2288 42.6059C41.3154 42.5186 41.402 42.4314 41.4913 42.3415C41.6918 42.1665 41.6918 42.1665 41.6762 41.9974C39.1583 41.9974 36.6404 41.9974 34.0462 41.9974ZM41.9537 41.9974C41.9537 44.5893 41.9305 47.0734 41.9305 49.7439C42.0646 49.636 42.174 49.5713 42.433 49.3124C42.5537 49.1917 42.7414 49.0039 42.8645 48.8808C42.989 48.7552 43.3417 48.4048 43.4687 48.2766C43.5566 48.1882 43.896 47.8498 43.9866 47.7587C44.1704 47.5736 44.321 47.4263 44.5045 47.2409C44.7865 46.956 44.9981 46.7477 45.2813 46.4641C45.4603 46.2835 45.7066 46.0406 45.8855 45.8599C45.9704 45.775 46.1432 45.6021 46.2307 45.5146C46.651 45.0946 46.4467 45.2987 46.8349 44.9104C47.0938 44.6515 47.2048 44.5482 47.5254 44.2199C47.7526 43.9873 47.8707 43.8747 48.1296 43.6157C48.4749 43.2705 48.4749 43.2705 48.9064 42.8389C49.2517 42.4937 49.2517 42.4937 49.4243 42.321C49.5106 42.2347 49.5969 42.1484 49.5837 41.9974C47.0658 41.9974 44.5479 41.9974 41.9537 41.9974Z" fill="var(--fill-0, #1DBF98)" id="Vector"/>
<path d="M41.9537 41.9975C41.9537 44.6821 41.9537 47.3666 41.9537 50.1325C39.2984 50.1325 36.71 50.1325 33.9743 50.1325C33.9743 49.8304 33.9743 49.9383 33.9743 49.6578C33.9743 49.6578 34.0606 49.5715 34.1469 49.4852C34.2333 49.3988 34.2502 49.3827 34.3196 49.3125C34.549 49.1233 34.6632 48.9889 35.0101 48.7083C35.1488 48.5681 35.167 48.5526 35.269 48.4494C35.4077 48.3091 35.4382 48.2812 35.5279 48.1905C35.6667 48.0502 35.7345 47.9855 35.8732 47.8452C35.9644 47.753 35.9934 47.7265 36.1321 47.5863C36.3402 47.3759 36.408 47.3111 36.4774 47.241C36.7548 46.9605 36.8208 46.9066 37.0416 46.647C37.1434 46.5431 37.2453 46.4393 37.3502 46.3323C37.5152 46.1663 37.5152 46.1663 37.6835 45.9971C37.7964 45.8827 37.9092 45.7683 38.0255 45.6504C38.264 45.4091 38.5029 45.1682 38.742 44.9275C39.1093 44.5577 39.4751 44.1863 39.8408 43.8148C40.0725 43.5808 40.3042 43.3469 40.5361 43.113C40.701 42.9454 40.701 42.9454 40.8693 42.7743C40.9712 42.6723 41.073 42.5702 41.178 42.465C41.2677 42.3745 41.3574 42.284 41.4499 42.1907C41.6762 41.9975 41.6762 41.9975 41.9537 41.9975Z" fill="var(--fill-0, #1DBF98)" id="Vector_2"/>
</g>
</g>
</g>
<defs>
<radialGradient cx="0" cy="0" gradientTransform="translate(38 38) rotate(90) scale(38)" gradientUnits="userSpaceOnUse" id="paint0_radial_0_15937" r="1">
<stop offset="0.375" stop-color="white"/>
<stop offset="1" stop-color="white" stop-opacity="0"/>
</radialGradient>
</defs>
</svg>