<?xml version="1.0" encoding="utf-8"?>
<svg xmlns="http://www.w3.org/2000/svg" fill="none" height="100%" overflow="visible" preserveAspectRatio="none" style="display: block;" viewBox="0 0 40 40" width="100%">
<g id="vuesax/outline/location">
<g id="location">
<path d="M20 23.6167C16.45 23.6167 13.55 20.7333 13.55 17.1667C13.55 13.6 16.45 10.7333 20 10.7333C23.55 10.7333 26.45 13.6167 26.45 17.1833C26.45 20.75 23.55 23.6167 20 23.6167ZM20 13.2333C17.8333 13.2333 16.05 15 16.05 17.1833C16.05 19.3667 17.8167 21.1333 20 21.1333C22.1833 21.1333 23.95 19.3667 23.95 17.1833C23.95 15 22.1667 13.2333 20 13.2333Z" fill="var(--fill-0, #1DBF98)" id="Vector"/>
<path d="M19.9995 37.9333C17.5328 37.9333 15.0495 37 13.1161 35.15C8.19948 30.4167 2.76615 22.8667 4.81615 13.8833C6.66615 5.73333 13.7828 2.08333 19.9995 2.08333C19.9995 2.08333 19.9995 2.08333 20.0161 2.08333C26.2328 2.08333 33.3495 5.73333 35.1995 13.9C37.2328 22.8833 31.7995 30.4167 26.8828 35.15C24.9495 37 22.4661 37.9333 19.9995 37.9333ZM19.9995 4.58333C15.1495 4.58333 8.91615 7.16667 7.26615 14.4333C5.46615 22.2833 10.3995 29.05 14.8661 33.3333C17.7495 36.1167 22.2661 36.1167 25.1495 33.3333C29.5995 29.05 34.5328 22.2833 32.7661 14.4333C31.0995 7.16667 24.8495 4.58333 19.9995 4.58333Z" fill="var(--fill-0, #1DBF98)" id="Vector_2"/>
<g id="Vector_3" opacity="0">
</g>
</g>
</g>
</svg>