<?xml version="1.0" encoding="utf-8"?>
<svg xmlns="http://www.w3.org/2000/svg" fill="none" height="100%" overflow="visible" preserveAspectRatio="none" style="display: block;" viewBox="0 0 25.3207 25.6" width="100%">
<g id="Group 1000007205">
<g id="Group 1000007204">
<path d="M9.25502e-07 1.88053e-05C8.35584 1.88053e-05 16.7117 1.88053e-05 25.3207 1.88053e-05C25.3207 8.44802 25.3207 16.896 25.3207 25.6C16.9649 25.6 8.60904 25.6 9.25502e-07 25.6C9.25502e-07 17.152 9.25502e-07 8.70402 9.25502e-07 1.88053e-05ZM16.8317 8.4347C16.8317 11.1693 16.8317 13.9039 16.8317 16.7214C17.6719 15.9933 17.6613 16.0301 18.4301 15.2644C18.5511 15.1438 19.0339 14.6601 19.1586 14.5359C19.2728 14.4207 19.8328 13.869 19.9505 13.7503C20.0543 13.6459 20.1582 13.5415 20.2652 13.434C20.5226 13.1908 20.5782 13.1187 20.7977 12.8968C20.9238 12.7693 21.0888 12.6065 21.162 12.5325C21.4352 12.2593 21.376 12.3243 21.7084 11.9861C21.8253 11.8686 21.9521 11.743 22.0726 11.6219C22.3723 11.3435 22.3816 11.3146 22.5279 11.1666C22.6743 11.0186 22.5637 11.1324 22.71 10.9845C22.8564 10.8365 22.9057 10.8023 22.9789 10.7283C23.1253 10.5804 23.0654 10.6409 23.1985 10.5064C23.2716 10.4324 23.2768 10.4272 23.3448 10.3584C23.5644 10.1364 23.4912 10.2104 23.6375 10.0624C23.7839 9.91447 23.8549 9.83955 23.9849 9.70957C24.167 9.52745 24.3183 9.31118 24.4402 9.1632C24.8061 8.71927 24.8045 8.79895 24.8816 8.58267C24.8816 8.53384 24.8816 8.48501 24.8816 8.4347C22.2252 8.4347 19.5687 8.4347 16.8317 8.4347ZM8.48903 17.0174C8.48903 19.752 8.48903 22.4866 8.48903 25.3041C8.68223 25.1576 8.87543 25.0111 9.07448 24.8601C9.07448 24.7625 9.29402 24.8128 9.29402 24.7121C9.51137 24.6389 9.29183 24.4909 9.51357 24.4162C9.51357 24.3185 9.73311 24.3688 9.73311 24.2682C9.95046 24.195 9.73091 24.047 9.95265 23.9723C10.1526 23.7296 10.3471 23.4823 10.5381 23.2324C10.7799 22.9832 11.0239 22.7374 11.2699 22.4925C11.4589 22.3024 11.6478 22.1121 11.8367 21.9218C11.9421 21.8157 12.0475 21.7096 12.1562 21.6003C12.6298 21.1234 13.1031 20.6461 13.5763 20.1688C13.8267 19.9164 14.0773 19.664 14.328 19.4119C14.6897 19.0479 15.0509 18.6836 15.4121 18.3191C15.525 18.2056 15.638 18.0922 15.7544 17.9753C15.8575 17.8711 15.9606 17.7668 16.0669 17.6594C16.1583 17.5673 16.2497 17.4753 16.3439 17.3804C16.5555 17.1958 16.5555 17.1958 16.539 17.0174C13.8825 17.0174 11.226 17.0174 8.48903 17.0174ZM16.8317 17.0174C16.8317 19.752 16.8073 22.3727 16.8073 25.1902C16.9487 25.0764 17.0642 25.0081 17.3373 24.7349C17.4647 24.6076 17.6627 24.4095 17.7927 24.2796C17.924 24.1471 18.2961 23.7774 18.4301 23.6422C18.5229 23.5489 18.8809 23.1919 18.9765 23.0958C19.1704 22.9005 19.3293 22.7451 19.5229 22.5494C19.8204 22.2489 20.0437 22.0291 20.3424 21.7298C20.5313 21.5394 20.7912 21.283 20.9799 21.0924C21.0695 21.0029 21.2518 20.8204 21.3441 20.7282C21.7875 20.2851 21.5719 20.5003 21.9815 20.0907C22.2547 19.8175 22.3718 19.7085 22.71 19.3622C22.9497 19.1169 23.0743 18.998 23.3475 18.7248C23.7117 18.3605 23.7117 18.3605 24.167 17.9052C24.5313 17.541 24.5313 17.541 24.7134 17.3588C24.8045 17.2678 24.8955 17.1767 24.8816 17.0174C22.2252 17.0174 19.5687 17.0174 16.8317 17.0174Z" fill="var(--fill-0, #185FA2)" id="Vector"/>
<path d="M16.8318 17.0173C16.8318 19.8496 16.8318 22.6819 16.8318 25.6C14.0304 25.6 11.2996 25.6 8.41333 25.6C8.41333 25.2813 8.41333 25.3951 8.41333 25.0991C8.41333 25.0991 8.50439 25.0081 8.59546 24.917C8.68652 24.826 8.7044 24.8089 8.77758 24.7349C9.01964 24.5352 9.14018 24.3934 9.50608 24.0974C9.65245 23.9495 9.67163 23.9331 9.77927 23.8243C9.92563 23.6763 9.95778 23.6468 10.0525 23.5511C10.1988 23.4031 10.2703 23.3348 10.4167 23.1868C10.5129 23.0895 10.5435 23.0616 10.6899 22.9136C10.9094 22.6917 10.981 22.6234 11.0541 22.5494C11.3469 22.2534 11.4164 22.1965 11.6494 21.9227C11.7568 21.8131 11.8643 21.7035 11.975 21.5906C12.149 21.4156 12.149 21.4156 12.3266 21.237C12.4457 21.1163 12.5648 20.9956 12.6875 20.8713C12.9391 20.6167 13.1911 20.3625 13.4434 20.1086C13.8309 19.7184 14.2169 19.3266 14.6027 18.9347C14.8471 18.6878 15.0916 18.4409 15.3362 18.1942C15.5102 18.0173 15.5102 18.0173 15.6878 17.8369C15.7952 17.7292 15.9027 17.6215 16.0134 17.5105C16.1081 17.4151 16.2027 17.3196 16.3003 17.2212C16.5391 17.0173 16.5391 17.0173 16.8318 17.0173Z" fill="var(--fill-0, #CDDC28)" id="Vector_2"/>
</g>
</g>
</svg>