<?xml version="1.0" encoding="utf-8"?>
<svg xmlns="http://www.w3.org/2000/svg" fill="none" height="100%" overflow="visible" preserveAspectRatio="none" style="display: block;" viewBox="0 0 60 60" width="100%">
<g id="Frame 1000008498">
<rect fill="url(#paint0_radial_0_16037)" height="60" width="60"/>
<g id="Group 1000007205" opacity="0.3">
<g id="Group 1000007204">
<path d="M20.5264 20.4218C26.779 20.4218 33.0316 20.4218 39.4738 20.4218C39.4738 26.7434 39.4738 33.065 39.4738 39.5781C33.2211 39.5781 26.9685 39.5781 20.5264 39.5781C20.5264 33.2565 20.5264 26.9349 20.5264 20.4218ZM33.1215 26.7334C33.1215 28.7797 33.1215 30.826 33.1215 32.9343C33.7502 32.3895 33.7423 32.4171 34.3175 31.844C34.4081 31.7538 34.7694 31.3919 34.8627 31.2989C34.9482 31.2127 35.3671 30.7999 35.4552 30.7111C35.5329 30.6329 35.6106 30.5548 35.6907 30.4744C35.8834 30.2924 35.9249 30.2385 36.0892 30.0724C36.1835 29.977 36.307 29.8552 36.3618 29.7998C36.5662 29.5954 36.522 29.644 36.7706 29.3909C36.8582 29.303 36.953 29.209 37.0432 29.1184C37.2674 28.91 37.2744 28.8884 37.3839 28.7777C37.4934 28.6669 37.4107 28.7521 37.5202 28.6414C37.6297 28.5307 37.6666 28.5051 37.7214 28.4497C37.8309 28.339 37.7861 28.3843 37.8857 28.2836C37.9404 28.2283 37.9443 28.2244 37.9952 28.1729C38.1595 28.0068 38.1047 28.0622 38.2142 27.9515C38.3238 27.8407 38.3769 27.7847 38.4742 27.6874C38.6105 27.5511 38.7236 27.3893 38.8149 27.2786C39.0887 26.9464 39.0875 27.006 39.1452 26.8441C39.1452 26.8076 39.1452 26.7711 39.1452 26.7334C37.1574 26.7334 35.1695 26.7334 33.1215 26.7334ZM26.8787 33.1558C26.8787 35.2021 26.8787 37.2484 26.8787 39.3567C27.0233 39.2471 27.1678 39.1374 27.3168 39.0245C27.3168 38.9514 27.4811 38.9891 27.4811 38.9138C27.6437 38.8589 27.4794 38.7482 27.6453 38.6923C27.6453 38.6192 27.8096 38.6569 27.8096 38.5816C27.9723 38.5268 27.808 38.416 27.9739 38.3601C28.1236 38.1785 28.2691 37.9935 28.412 37.8065C28.5929 37.62 28.7755 37.436 28.9596 37.2528C29.101 37.1105 29.2424 36.9682 29.3837 36.8258C29.4626 36.7464 29.5415 36.667 29.6228 36.5851C29.9772 36.2283 30.3313 35.8711 30.6855 35.514C30.8729 35.3251 31.0604 35.1363 31.2479 34.9476C31.5186 34.6753 31.7889 34.4026 32.0592 34.1299C32.1437 34.045 32.2282 33.9601 32.3153 33.8726C32.3925 33.7946 32.4697 33.7166 32.5492 33.6362C32.6176 33.5673 32.6859 33.4984 32.7564 33.4274C32.9148 33.2893 32.9148 33.2893 32.9024 33.1558C30.9146 33.1558 28.9268 33.1558 26.8787 33.1558ZM33.1215 33.1558C33.1215 35.2021 33.1032 37.1632 33.1032 39.2715C33.209 39.1863 33.2954 39.1352 33.4998 38.9308C33.5951 38.8355 33.7433 38.6873 33.8405 38.5901C33.9388 38.4909 34.2173 38.2143 34.3175 38.1131C34.3869 38.0433 34.6549 37.7762 34.7264 37.7042C34.8715 37.5581 34.9904 37.4418 35.1352 37.2954C35.3579 37.0705 35.525 36.9061 35.7485 36.6821C35.8898 36.5396 36.0843 36.3478 36.2255 36.2051C36.2926 36.1381 36.429 36.0016 36.4981 35.9326C36.8299 35.601 36.6686 35.7621 36.9751 35.4556C37.1795 35.2511 37.2671 35.1696 37.5202 34.9104C37.6995 34.7268 37.7928 34.6379 37.9972 34.4334C38.2698 34.1609 38.2698 34.1609 38.6105 33.8202C38.883 33.5476 38.883 33.5476 39.0193 33.4113C39.0875 33.3432 39.1556 33.275 39.1452 33.1558C37.1574 33.1558 35.1695 33.1558 33.1215 33.1558Z" fill="var(--fill-0, #1DBF98)" id="Vector"/>
<path d="M33.1214 33.1559C33.1214 35.2753 33.1214 37.3947 33.1214 39.5783C31.0252 39.5783 28.9817 39.5783 26.8219 39.5783C26.8219 39.3398 26.8219 39.425 26.8219 39.2035C26.8219 39.2035 26.8901 39.1354 26.9582 39.0672C27.0263 38.9991 27.0397 38.9863 27.0945 38.9309C27.2756 38.7815 27.3658 38.6754 27.6396 38.4539C27.7491 38.3432 27.7635 38.331 27.844 38.2495C27.9536 38.1388 27.9776 38.1167 28.0485 38.0451C28.158 37.9344 28.2115 37.8833 28.321 37.7725C28.393 37.6997 28.4159 37.6788 28.5255 37.5681C28.6897 37.402 28.7433 37.3509 28.798 37.2955C29.0171 37.0741 29.0691 37.0315 29.2434 36.8266C29.3238 36.7446 29.4043 36.6626 29.4871 36.5781C29.6173 36.4471 29.6173 36.4471 29.7502 36.3135C29.8393 36.2232 29.9284 36.1328 30.0202 36.0398C30.2085 35.8493 30.3971 35.6591 30.5859 35.4691C30.8759 35.1771 31.1647 34.884 31.4533 34.5907C31.6362 34.4059 31.8192 34.2212 32.0022 34.0366C32.1325 33.9042 32.1325 33.9042 32.2653 33.7692C32.3457 33.6886 32.4262 33.608 32.509 33.525C32.5798 33.4535 32.6507 33.3821 32.7237 33.3085C32.9024 33.1559 32.9024 33.1559 33.1214 33.1559Z" fill="var(--fill-0, #1DBF98)" id="Vector_2"/>
</g>
</g>
</g>
<defs>
<radialGradient cx="0" cy="0" gradientTransform="translate(30 30) rotate(90) scale(30)" gradientUnits="userSpaceOnUse" id="paint0_radial_0_16037" r="1">
<stop offset="0.375" stop-color="white"/>
<stop offset="1" stop-color="white" stop-opacity="0"/>
</radialGradient>
</defs>
</svg>