<?xml version="1.0" encoding="utf-8"?>
<svg xmlns="http://www.w3.org/2000/svg" fill="none" height="100%" overflow="visible" preserveAspectRatio="none" style="display: block;" viewBox="0 0 116 116" width="100%">
<g id="Frame 1000008496">
<rect fill="url(#paint0_radial_0_14617)" height="116" width="116"/>
<g id="Vector">
<path d="M68.7784 43.3997C69.9794 42.1591 71.9672 42.119 73.2181 43.3102C74.469 44.5014 74.5094 46.4728 73.3084 47.7134L47.1704 74.7128C45.9694 75.9534 43.9816 75.9935 42.7307 74.8023C41.4798 73.6111 41.4394 71.6397 42.6405 70.399L68.7784 43.3997Z" fill="#1DBF98"/>
<path d="M46.7965 48.7056C48.0163 47.483 50.0044 47.4726 51.2371 48.6824C52.4698 49.8921 52.4803 51.8639 51.2605 53.0865L45.2055 59.1554C43.9857 60.378 41.9976 60.3884 40.7649 59.1787C39.5323 57.9689 39.5218 55.9971 40.7415 54.7745L46.7965 48.7056Z" fill="var(--fill-0, #1DBF98)"/>
<path d="M70.7945 60.6409C72.0143 59.4184 74.0024 59.408 75.2351 60.6177C76.4677 61.8275 76.4782 63.7992 75.2585 65.0218L65.0611 75.2427C63.8413 76.4653 61.8532 76.4757 60.6205 75.2659C59.3878 74.0562 59.3773 72.0844 60.5971 70.8618L70.7945 60.6409Z" fill="#1DBF98"/>
<path d="M59.8719 43.0264C59.8719 44.7898 58.4306 46.2193 56.6526 46.2193C54.8746 46.2193 53.4333 44.7898 53.4333 43.0264C53.4333 41.263 54.8746 39.8335 56.6526 39.8335C58.4306 39.8335 59.8719 41.263 59.8719 43.0264Z" fill="var(--fill-0, #1DBF98)"/>
</g>
</g>
<defs>
<radialGradient cx="0" cy="0" gradientTransform="translate(58 58) rotate(90) scale(58)" gradientUnits="userSpaceOnUse" id="paint0_radial_0_14617" r="1">
<stop offset="0.375" stop-color="white"/>
<stop offset="1" stop-color="white" stop-opacity="0"/>
</radialGradient>
</defs>
</svg>