<?xml version="1.0" encoding="utf-8"?>
<svg xmlns="http://www.w3.org/2000/svg" fill="none" height="100%" overflow="visible" preserveAspectRatio="none" style="display: block;" viewBox="0 0 55.9207 32.0001" width="100%">
<g id="Group 1000007345">
<g id="Vector">
<path d="M16 9.2186e-05C24.8366 9.2186e-05 32 7.16354 32 16.0001C32 16.075 31.9992 16.1497 31.9982 16.2244L25.1486 15.8684C25.0781 10.8755 21.0096 6.84966 16 6.84966C10.9464 6.84966 6.84957 10.9465 6.84957 16.0001C6.84957 21.0537 10.9464 25.1505 16 25.1505C18.8905 25.1505 21.8525 23.5833 23.5294 21.4903C24.3137 24.0001 25.3641 25.7856 26.8235 27.6079C23.9902 30.1534 20.1086 32.0001 16 32.0001C7.16344 32.0001 0 24.8366 0 16.0001C0 7.16354 7.16344 9.2186e-05 16 9.2186e-05Z" fill="url(#paint0_linear_0_15992)"/>
<path d="M28.4994 6.01086C30.7073 8.75215 31.1398 10.1962 31.9241 14.4315C32 14.8414 32.0184 15.3765 32.0184 15.763C32.0184 20.7554 36.1574 24.8028 41.2632 24.8028C44.968 24.8028 47.6921 23.2904 49.167 20.2136C51.2993 21.2515 53.5338 22.3183 55.3725 23.2158C52.7658 28.5238 47.6877 31.5693 41.2632 31.5693C32.3354 31.5693 25.1469 24.5079 25.1469 15.7783C25.1469 12.0754 26.3184 8.70499 28.4994 6.01086Z" fill="url(#paint1_linear_0_15992)"/>
</g>
<path d="M30.2291 4.25891C32.1282 2.50079 34.4254 1.22956 36.9238 0.554282C39.4221 -0.121 42.0469 -0.180185 44.5731 0.381803C47.0993 0.94379 49.4515 2.11018 51.4279 3.78092C53.4043 5.45166 54.946 7.57689 55.9206 9.97431L49.5753 12.5539C49.0179 11.1828 48.1363 9.9674 47.006 9.0119C45.8757 8.05641 44.7394 7.38022 43.2947 7.05882C41.8499 6.73742 40.1398 6.78039 38.711 7.16659C36.5496 7.68627 34.969 9.34747 33.8829 10.3529C33.8829 10.3529 33.0277 8.35652 32.3143 7.16659C31.6008 5.97665 30.2291 4.25891 30.2291 4.25891Z" fill="var(--fill-0, #1DBF98)" id="Ellipse 4299"/>
</g>
<defs>
<linearGradient gradientUnits="userSpaceOnUse" id="paint0_linear_0_15992" x1="6.11765" x2="45.1765" y1="10.9805" y2="24.7844">
<stop offset="0.485838" stop-color="#1DBF98"/>
<stop offset="1" stop-color="#8BF8DD"/>
</linearGradient>
<linearGradient gradientUnits="userSpaceOnUse" id="paint1_linear_0_15992" x1="6.11765" x2="45.1765" y1="10.9805" y2="24.7844">
<stop offset="0.485838" stop-color="#1DBF98"/>
<stop offset="1" stop-color="#8BF8DD"/>
</linearGradient>
</defs>
</svg>