<?xml version="1.0" encoding="utf-8"?>
<svg xmlns="http://www.w3.org/2000/svg" fill="none" height="100%" overflow="visible" preserveAspectRatio="none" style="display: block;" viewBox="0 0 136 136" width="100%">
<g id="Frame 1000008499">
<rect fill="url(#paint0_radial_0_15897)" height="136" width="136"/>
<g id="Group 1000007345">
<g id="Vector">
<path d="M54.9139 50.495C64.5817 50.495 72.4189 58.3322 72.4189 68C72.4189 68.0819 72.418 68.1637 72.4169 68.2454L64.9231 67.8559C64.846 62.3933 60.3948 57.9888 54.9139 57.9888C49.3849 57.9888 44.9028 62.471 44.9028 68C44.9028 73.529 49.3849 78.0111 54.9139 78.0111C58.0763 78.0111 61.3169 76.2965 63.1516 74.0066C64.0097 76.7525 65.1589 78.706 66.7555 80.6997C63.6557 83.4846 59.409 85.505 54.9139 85.505C45.2462 85.505 37.4089 77.6677 37.4089 68C37.4089 58.3322 45.2462 50.495 54.9139 50.495Z" fill="url(#paint1_linear_0_15897)"/>
<path d="M68.589 57.0711C71.0046 60.0703 71.4778 61.6501 72.3359 66.2838C72.4189 66.7323 72.439 67.3177 72.439 67.7406C72.439 73.2026 76.9674 77.6307 82.5534 77.6307C86.6068 77.6307 89.5871 75.9761 91.2007 72.6099C93.5336 73.7454 95.9783 74.9125 97.99 75.8944C95.138 81.7018 89.5822 85.0337 82.5534 85.0337C72.7859 85.0337 64.9212 77.308 64.9212 67.7573C64.9212 63.7062 66.2029 60.0187 68.589 57.0711Z" fill="url(#paint2_linear_0_15897)"/>
</g>
<path d="M70.4827 55.1545C72.5605 53.231 75.0738 51.8402 77.8071 51.1014C80.5404 50.3626 83.4122 50.2978 86.176 50.9127C88.9398 51.5275 91.5133 52.8036 93.6756 54.6315C95.8379 56.4594 97.5246 58.7845 98.5909 61.4075L91.6488 64.2297C91.0389 62.7296 90.0743 61.3999 88.8377 60.3545C87.6011 59.3092 86.3579 58.5694 84.7773 58.2177C83.1967 57.8661 81.3257 57.9131 79.7625 58.3356C77.3977 58.9042 75.6685 60.7217 74.4802 61.8217C74.4802 61.8217 73.5446 59.6375 72.7641 58.3356C71.9835 57.0338 70.4827 55.1545 70.4827 55.1545Z" fill="var(--fill-0, #1DBF98)" id="Ellipse 4299"/>
</g>
</g>
<defs>
<radialGradient cx="0" cy="0" gradientTransform="translate(68 68) rotate(90) scale(68)" gradientUnits="userSpaceOnUse" id="paint0_radial_0_15897" r="1">
<stop offset="0.375" stop-color="white"/>
<stop offset="1" stop-color="white" stop-opacity="0"/>
</radialGradient>
<linearGradient gradientUnits="userSpaceOnUse" id="paint1_linear_0_15897" x1="44.102" x2="86.8348" y1="62.5082" y2="77.6106">
<stop offset="0.485838" stop-color="#1DBF98"/>
<stop offset="1" stop-color="#8BF8DD"/>
</linearGradient>
<linearGradient gradientUnits="userSpaceOnUse" id="paint2_linear_0_15897" x1="44.102" x2="86.8348" y1="62.5082" y2="77.6106">
<stop offset="0.485838" stop-color="#1DBF98"/>
<stop offset="1" stop-color="#8BF8DD"/>
</linearGradient>
</defs>
</svg>