<?xml version="1.0" encoding="utf-8"?>
<svg xmlns="http://www.w3.org/2000/svg" fill="none" height="100%" overflow="visible" preserveAspectRatio="none" style="display: block;" viewBox="0 0 40 27.7118" width="100%">
<g id="Group 1000008207">
<g id="Group 1000008199">
<path d="M39.9577 21.4409L23.4628 21.4832L14.445 13.9492L39.9577 21.4409Z" fill="var(--fill-0, #09696E)" id="Vector 1205"/>
<path d="M23.4212 0.000203451H39.9581V6.18637H23.4212V0.000203451Z" fill="var(--fill-0, #1DBF98)" id="Rectangle 3761"/>
<path d="M0 0H6.12789V6.18617H0V0Z" fill="var(--fill-0, #1DBF98)" id="Rectangle 3764"/>
<path d="M0 11.1025H6.12789V27.6272H0V11.1025Z" fill="var(--fill-0, #1DBF98)" id="Rectangle 3765"/>
<path d="M14.445 14.0749L23.4208 0.000203451V6.18609L14.445 14.0749Z" fill="var(--fill-0, #ACEED6)" id="Vector 1202"/>
<path d="M14.6956 14.0749L6.1278 0.000203451V6.18609L14.6956 14.0749Z" fill="var(--fill-0, #ACEED6)" id="Vector 1207"/>
<path d="M23.4208 6.18612L14.445 14.0749L39.9577 6.18612H23.4208Z" fill="var(--fill-0, #09696E)" id="Vector 1204"/>
<path d="M6.1278 6.18612L14.6956 14.0749L0.0418777 6.18612H6.1278Z" fill="var(--fill-0, #09696E)" id="Vector 1208"/>
<path d="M23.3789 21.4402H39.9578V27.6264H23.3789V21.4402Z" fill="var(--fill-0, #1DBF98)" id="Rectangle 3763"/>
<path d="M23.4628 21.4832V27.7118L14.445 13.9492L23.4628 21.4832Z" fill="var(--fill-0, #ACEED6)" id="Vector 1203"/>
<path d="M6.12806 11.1025V27.6272L14.5703 13.949L6.12806 11.1025Z" fill="var(--fill-0, #ACEED6)" id="Vector 1209"/>
<rect fill="var(--fill-0, #1DBF98)" height="6.18616" id="Rectangle 3762" width="16.6209" x="23.3789" y="11.1025"/>
<path d="M14.3197 13.949L23.3791 11.1025V17.2887L14.3197 13.949Z" fill="var(--fill-0, #ACEED6)" id="Vector 1201"/>
</g>
</g>
</svg>