<?xml version="1.0" encoding="utf-8"?>
<svg xmlns="http://www.w3.org/2000/svg" fill="none" height="100%" overflow="visible" preserveAspectRatio="none" style="display: block;" viewBox="0 0 116 116" width="100%">
<g id="Frame 1000008497">
<rect fill="url(#paint0_radial_0_15950)" height="116" width="116"/>
<g id="Group 1000007870">
<path d="M60.0608 56.3508C73.6261 63.4485 64.658 75.0422 58.548 76.1995H56.919C59.3048 75.6209 64.3723 72.9589 64.3088 67.23C64.2506 61.9801 61.3641 61.5049 54.3587 56.8716C42.547 49.0594 53.777 39.8005 56.919 39.8005H58.1409C55.1152 40.6107 45.5725 48.7701 60.0608 56.3508Z" fill="var(--fill-0, white)" id="Vector 1507" stroke="var(--stroke-0, white)" stroke-width="0.353987"/>
<path d="M55.1661 40.1162C54.6321 40.3839 54.0557 40.7453 53.4776 41.1845C52.1566 42.1884 50.8125 43.6112 49.9395 45.2871C49.0657 46.9649 48.6606 48.9047 49.2325 50.9277C49.8043 52.9498 51.3449 55.0283 54.3096 57C56.0567 58.1618 57.5484 59.0638 58.7979 59.8418C60.0504 60.6216 61.0559 61.2747 61.8438 61.9433C62.6288 62.6095 63.1924 63.2871 63.5655 64.1132C63.939 64.9406 64.1273 65.9301 64.1417 67.2285C64.1726 70.0386 62.9537 72.0953 61.4317 73.5244C59.9058 74.9569 58.0783 75.7555 56.9161 76.039L56.9327 76.1806C47.3143 75.6313 39.6849 67.7087 39.6846 58.0136C39.6846 48.8322 46.5269 41.2387 55.421 39.9931L55.1661 40.1162ZM58.2061 39.8164C68.2265 39.9261 76.3155 48.0307 76.3155 58.0136C76.3152 67.5642 68.9115 75.3949 59.4962 76.1513C60.8083 75.7147 62.1823 74.8678 63.4034 73.7451C64.9036 72.3657 66.1882 70.5588 66.8516 68.5576C67.5158 66.5537 67.5583 64.3522 66.5694 62.1992C65.5811 60.0478 63.5718 57.9636 60.17 56.1738C56.5783 54.2841 54.4972 52.3694 53.4288 50.5615C52.3641 48.7597 52.2972 47.0521 52.7579 45.5507C53.2205 44.0434 54.218 42.7338 55.2921 41.749C56.3688 40.7618 57.504 40.1178 58.2208 39.9248L58.2061 39.8164Z" fill="var(--fill-0, black)" id="Subtract"/>
<path d="M55.1661 40.1162C54.6321 40.3839 54.0557 40.7453 53.4776 41.1845C52.1566 42.1884 50.8125 43.6112 49.9395 45.2871C49.0657 46.9649 48.6606 48.9047 49.2325 50.9277C49.8043 52.9498 51.3449 55.0283 54.3096 57C56.0567 58.1618 57.5484 59.0638 58.7979 59.8418C60.0504 60.6216 61.0559 61.2747 61.8438 61.9433C62.6288 62.6095 63.1924 63.2871 63.5655 64.1132C63.939 64.9406 64.1273 65.9301 64.1417 67.2285C64.1726 70.0386 62.9537 72.0953 61.4317 73.5244C59.9058 74.9569 58.0783 75.7555 56.9161 76.039L56.9327 76.1806C47.3143 75.6313 39.6849 67.7087 39.6846 58.0136C39.6846 48.8322 46.5269 41.2387 55.421 39.9931L55.1661 40.1162ZM58.2061 39.8164C68.2265 39.9261 76.3155 48.0307 76.3155 58.0136C76.3152 67.5642 68.9115 75.3949 59.4962 76.1513C60.8083 75.7147 62.1823 74.8678 63.4034 73.7451C64.9036 72.3657 66.1882 70.5588 66.8516 68.5576C67.5158 66.5537 67.5583 64.3522 66.5694 62.1992C65.5811 60.0478 63.5718 57.9636 60.17 56.1738C56.5783 54.2841 54.4972 52.3694 53.4288 50.5615C52.3641 48.7597 52.2972 47.0521 52.7579 45.5507C53.2205 44.0434 54.218 42.7338 55.2921 41.749C56.3688 40.7618 57.504 40.1178 58.2208 39.9248L58.2061 39.8164Z" fill="var(--fill-0, #1DBF98)" id="Subtract_2"/>
<path d="M58.1576 39.8146C68.1799 39.922 76.2716 48.0266 76.2718 58.0109C76.2718 67.5595 68.8708 75.3881 59.4584 76.1476C60.7672 75.7099 62.1371 74.8648 63.3548 73.7453C64.8551 72.3659 66.1395 70.559 66.8031 68.5578C67.4674 66.5538 67.5098 64.3525 66.5209 62.1994C65.5326 60.0479 63.5234 57.9638 60.1214 56.174C56.5299 54.2844 54.4487 52.3695 53.3802 50.5617C52.3156 48.76 52.2488 47.0522 52.7093 45.5509C53.1718 44.0436 54.1695 42.734 55.2435 41.7492C56.3201 40.7621 57.4554 40.1182 58.1722 39.9249L58.1576 39.8146Z" fill="var(--fill-0, #1DBF98)" id="Subtract_3"/>
<path d="M59.0428 70.5896H49.5953C49.5373 66.7642 49.5953 63.1707 49.5373 61.0262C51.1138 62.139 52.9763 62.9388 53.6525 63.1707V66.3005H59.4485L59.0428 70.5896Z" fill="var(--fill-0, white)" id="Vector 1509"/>
<path d="M66.7523 53.6074C71.2036 54.303 74.0166 56.3316 74.8667 57.2589C76.9533 49.5502 65.9987 39.3494 58.3481 40.4505C52.2622 43.9281 55.4501 49.5502 55.4501 49.6661C55.4501 49.7589 56.3774 49.7048 56.8411 49.6661H62.869L63.6224 50.2457C62.811 51.0765 62.3009 52.9119 66.7523 53.6074Z" fill="url(#paint1_linear_0_15950)" id="Vector 1510"/>
<path d="M57.2452 45.3774H66.6927C66.7507 49.2028 66.6927 52.7963 66.7507 54.9408C65.1742 53.828 63.3117 53.0282 62.6355 52.7963V49.6665H56.8395L57.2452 45.3774Z" fill="var(--fill-0, white)" id="Vector 1508"/>
<path d="M40.9013 57.4912C43.7761 55.5901 47.5087 54.2261 49.0157 53.7818C47.2188 50.7099 46.141 44.4038 54.1162 40.277C45.0163 43.5228 40.0899 50.9417 40.9013 57.4912Z" fill="url(#paint2_linear_0_15950)" id="Vector 1511"/>
</g>
</g>
<defs>
<radialGradient cx="0" cy="0" gradientTransform="translate(58.0001 58.0001) rotate(90) scale(58.0001)" gradientUnits="userSpaceOnUse" id="paint0_radial_0_15950" r="1">
<stop offset="0.375" stop-color="white"/>
<stop offset="1" stop-color="white" stop-opacity="0"/>
</radialGradient>
<linearGradient gradientUnits="userSpaceOnUse" id="paint1_linear_0_15950" x1="64.8709" x2="64.8709" y1="40.3683" y2="57.2589">
<stop stop-color="#1DBF98"/>
<stop offset="1" stop-color="#1DBF98"/>
</linearGradient>
<linearGradient gradientUnits="userSpaceOnUse" id="paint2_linear_0_15950" x1="47.4654" x2="47.4654" y1="40.277" y2="57.4912">
<stop stop-color="#1DBF98"/>
<stop offset="1" stop-color="#1DBF98" stop-opacity="0.5"/>
</linearGradient>
</defs>
</svg>