<?xml version="1.0" encoding="utf-8"?>
<svg xmlns="http://www.w3.org/2000/svg" fill="none" height="100%" overflow="visible" preserveAspectRatio="none" style="display: block;" viewBox="0 0 116 116" width="100%">
<g id="Frame 1000008498">
<rect fill="url(#paint0_radial_0_16052)" height="116" width="116"/>
<g id="Group 1000007205">
<g id="Group 1000007204">
<path d="M39.6841 39.4822C51.7725 39.4822 63.861 39.4822 76.3157 39.4822C76.3157 51.7039 76.3157 63.9257 76.3157 76.5178C64.2273 76.5178 52.1389 76.5178 39.6841 76.5178C39.6841 64.296 39.6841 52.0743 39.6841 39.4822ZM64.0346 51.6847C64.0346 55.6408 64.0346 59.597 64.0346 63.6731C65.2501 62.6197 65.2348 62.673 66.347 61.5652C66.5221 61.3908 67.2205 60.691 67.4009 60.5113C67.5662 60.3446 68.3763 59.5465 68.5466 59.3748C68.6968 59.2237 68.847 59.0727 69.0018 58.9171C69.3743 58.5653 69.4547 58.4611 69.7723 58.14C69.9546 57.9556 70.1934 57.72 70.2992 57.613C70.6945 57.2178 70.6089 57.3118 71.0897 56.8225C71.2589 56.6526 71.4423 56.4707 71.6166 56.2956C72.0502 55.8928 72.0636 55.851 72.2754 55.6369C72.4871 55.4228 72.3271 55.5875 72.5388 55.3734C72.7506 55.1593 72.8219 55.1099 72.9278 55.0029C73.1396 54.7888 73.053 54.8763 73.2454 54.6818C73.3513 54.5747 73.3587 54.5672 73.4572 54.4677C73.7748 54.1466 73.6689 54.2536 73.8807 54.0395C74.0924 53.8254 74.1952 53.7171 74.3832 53.529C74.6467 53.2655 74.8655 52.9527 75.0419 52.7386C75.5713 52.0964 75.5689 52.2116 75.6805 51.8987C75.6805 51.8281 75.6805 51.7574 75.6805 51.6847C71.8373 51.6847 67.9942 51.6847 64.0346 51.6847ZM51.9652 64.1012C51.9652 68.0574 51.9652 72.0136 51.9652 76.0896C52.2447 75.8777 52.5242 75.6658 52.8122 75.4474C52.8122 75.3061 53.1298 75.3789 53.1298 75.2333C53.4443 75.1273 53.1266 74.9133 53.4474 74.8052C53.4474 74.6639 53.7651 74.7366 53.7651 74.5911C54.0795 74.4851 53.7619 74.271 54.0827 74.1629C54.372 73.8119 54.6533 73.4541 54.9296 73.0925C55.2794 72.732 55.6324 72.3764 55.9884 72.0221C56.2618 71.7471 56.5351 71.4719 56.8083 71.1965C56.9608 71.043 57.1134 70.8895 57.2705 70.7313C57.9557 70.0414 58.6404 69.3509 59.325 68.6604C59.6873 68.2952 60.0498 67.9302 60.4125 67.5654C60.9358 67.0389 61.4584 66.5117 61.9809 65.9844C62.1443 65.8203 62.3077 65.6562 62.4761 65.4871C62.6253 65.3363 62.7745 65.1855 62.9282 65.0301C63.0604 64.8969 63.1926 64.7637 63.3289 64.6264C63.635 64.3594 63.635 64.3594 63.6111 64.1012C59.768 64.1012 55.9248 64.1012 51.9652 64.1012ZM64.0346 64.1012C64.0346 68.0574 63.9993 71.8489 63.9993 75.925C64.2039 75.7603 64.3709 75.6615 64.7661 75.2662C64.9504 75.082 65.2369 74.7955 65.4248 74.6075C65.6148 74.4158 66.1532 73.881 66.347 73.6854C66.4812 73.5504 66.9992 73.034 67.1375 72.8949C67.418 72.6124 67.648 72.3876 67.9279 72.1045C68.3584 71.6697 68.6814 71.3518 69.1136 70.9188C69.3868 70.6432 69.7628 70.2724 70.0358 69.9966C70.1654 69.8671 70.4291 69.6031 70.5627 69.4697C71.2043 68.8287 70.8923 69.1401 71.4849 68.5475C71.8801 68.1522 72.0495 67.9946 72.5388 67.4935C72.8855 67.1386 73.0658 66.9666 73.461 66.5714C73.988 66.0444 73.988 66.0444 74.6467 65.3857C75.1736 64.8587 75.1736 64.8587 75.4371 64.5952C75.5689 64.4635 75.7006 64.3318 75.6805 64.1012C71.8373 64.1012 67.9942 64.1012 64.0346 64.1012Z" fill="var(--fill-0, #1DBF98)" id="Vector"/>
<path d="M64.0344 64.1014C64.0344 68.1989 64.0344 72.2964 64.0344 76.518C59.9816 76.518 56.0309 76.518 51.8553 76.518C51.8553 76.0569 51.8553 76.2216 51.8553 75.7934C51.8553 75.7934 51.9871 75.6617 52.1188 75.5299C52.2505 75.3982 52.2764 75.3735 52.3823 75.2665C52.7325 74.9776 52.9069 74.7724 53.4362 74.3443C53.648 74.1302 53.6757 74.1065 53.8314 73.949C54.0432 73.735 54.0897 73.6923 54.2267 73.5538C54.4384 73.3397 54.5419 73.2409 54.7536 73.0269C54.8928 72.8861 54.9371 72.8457 55.1488 72.6316C55.4665 72.3105 55.5699 72.2117 55.6758 72.1047C56.0993 71.6765 56.1999 71.5942 56.5369 71.198C56.6924 71.0395 56.8478 70.881 57.008 70.7177C57.2598 70.4644 57.2598 70.4644 57.5167 70.206C57.689 70.0314 57.8612 69.8568 58.0388 69.6769C58.4028 69.3086 58.7673 68.9408 59.1323 68.5736C59.693 68.009 60.2513 67.4423 60.8094 66.8752C61.163 66.518 61.5168 66.161 61.8706 65.804C62.1224 65.5482 62.1224 65.5482 62.3793 65.2871C62.5347 65.1313 62.6902 64.9755 62.8504 64.815C62.9873 64.6768 63.1243 64.5387 63.2654 64.3964C63.6109 64.1014 63.6109 64.1014 64.0344 64.1014Z" fill="var(--fill-0, #1DBF98)" id="Vector_2"/>
</g>
</g>
</g>
<defs>
<radialGradient cx="0" cy="0" gradientTransform="translate(58 58) rotate(90) scale(58)" gradientUnits="userSpaceOnUse" id="paint0_radial_0_16052" r="1">
<stop offset="0.375" stop-color="white"/>
<stop offset="1" stop-color="white" stop-opacity="0"/>
</radialGradient>
</defs>
</svg>