<?xml version="1.0" encoding="utf-8"?>
<svg xmlns="http://www.w3.org/2000/svg" fill="none" height="100%" overflow="visible" preserveAspectRatio="none" style="display: block;" viewBox="0 0 60 60" width="100%">
<g id="Frame 1000008499">
<rect fill="url(#paint0_radial_0_16361)" height="60" width="60"/>
<g id="Group 1000007345" opacity="0.3">
<g id="Vector">
<path d="M24.2267 22.2772C28.4919 22.2772 31.9495 25.7348 31.9495 30C31.9495 30.0362 31.9491 30.0722 31.9486 30.1083L28.6425 29.9364C28.6085 27.5265 26.6447 25.5833 24.2267 25.5833C21.7874 25.5833 19.81 27.5607 19.81 30C19.81 32.4393 21.7874 34.4167 24.2267 34.4167C25.6219 34.4167 27.0515 33.6602 27.8609 32.65C28.2395 33.8614 28.7465 34.7232 29.4509 35.6028C28.0833 36.8314 26.2098 37.7228 24.2267 37.7228C19.9615 37.7228 16.5039 34.2652 16.5039 30C16.5039 25.7348 19.9615 22.2772 24.2267 22.2772Z" fill="url(#paint1_linear_0_16361)"/>
<path d="M30.2598 25.1785C31.3255 26.5016 31.5343 27.1986 31.9128 29.2429C31.9495 29.4407 31.9583 29.699 31.9583 29.8856C31.9583 32.2953 33.9561 34.2489 36.4206 34.2489C38.2088 34.2488 39.5237 33.5189 40.2355 32.0338C41.2648 32.5347 42.3433 33.0496 43.2308 33.4828C41.9726 36.0449 39.5215 37.5149 36.4206 37.5149C32.1114 37.5149 28.6416 34.1065 28.6416 29.8929C28.6417 28.1057 29.2071 26.4788 30.2598 25.1785Z" fill="url(#paint2_linear_0_16361)"/>
</g>
<path d="M31.0956 24.3329C32.0122 23.4843 33.121 22.8707 34.3269 22.5447C35.5328 22.2188 36.7997 22.1902 38.0191 22.4615C39.2384 22.7327 40.3738 23.2957 41.3277 24.1022C42.2817 24.9086 43.0258 25.9344 43.4962 27.0916L40.4335 28.3367C40.1645 27.6749 39.7389 27.0882 39.1934 26.627C38.6478 26.1658 38.0993 25.8395 37.402 25.6843C36.7047 25.5292 35.8792 25.5499 35.1896 25.7363C34.1463 25.9872 33.3834 26.789 32.8592 27.2743C32.8592 27.2743 32.4464 26.3107 32.102 25.7363C31.7577 25.162 31.0956 24.3329 31.0956 24.3329Z" fill="var(--fill-0, #1DBF98)" id="Ellipse 4299"/>
</g>
</g>
<defs>
<radialGradient cx="0" cy="0" gradientTransform="translate(30 30) rotate(90) scale(30)" gradientUnits="userSpaceOnUse" id="paint0_radial_0_16361" r="1">
<stop offset="0.375" stop-color="white"/>
<stop offset="1" stop-color="white" stop-opacity="0"/>
</radialGradient>
<linearGradient gradientUnits="userSpaceOnUse" id="paint1_linear_0_16361" x1="19.4567" x2="38.3094" y1="27.5772" y2="34.24">
<stop offset="0.485838" stop-color="#1DBF98"/>
<stop offset="1" stop-color="#8BF8DD"/>
</linearGradient>
<linearGradient gradientUnits="userSpaceOnUse" id="paint2_linear_0_16361" x1="19.4567" x2="38.3094" y1="27.5772" y2="34.24">
<stop offset="0.485838" stop-color="#1DBF98"/>
<stop offset="1" stop-color="#8BF8DD"/>
</linearGradient>
</defs>
</svg>