<?xml version="1.0" encoding="utf-8"?>
<svg xmlns="http://www.w3.org/2000/svg" fill="none" height="100%" overflow="visible" preserveAspectRatio="none" style="display: block;" viewBox="0 0 60 60" width="100%">
<g id="Frame 1000008498">
<rect fill="url(#paint0_radial_0_15986)" height="60" width="60"/>
<g id="Group 1000007205" opacity="0.3">
<g id="Group 1000007204">
<path d="M20.5262 20.4218C26.7789 20.4218 33.0315 20.4218 39.4736 20.4218C39.4736 26.7434 39.4736 33.065 39.4736 39.5782C33.221 39.5782 26.9683 39.5782 20.5262 39.5782C20.5262 33.2566 20.5262 26.935 20.5262 20.4218ZM33.1213 26.7335C33.1213 28.7797 33.1213 30.826 33.1213 32.9344C33.75 32.3895 33.7421 32.4171 34.3174 31.8441C34.4079 31.7539 34.7692 31.3919 34.8625 31.299C34.948 31.2127 35.367 30.7999 35.4551 30.7111C35.5328 30.633 35.6105 30.5549 35.6906 30.4744C35.8832 30.2924 35.9248 30.2385 36.0891 30.0724C36.1834 29.977 36.3069 29.8552 36.3616 29.7998C36.5661 29.5954 36.5218 29.644 36.7705 29.391C36.858 29.3031 36.9529 29.209 37.0431 29.1184C37.2673 28.9101 37.2742 28.8884 37.3838 28.7777C37.4933 28.667 37.4105 28.7522 37.52 28.6414C37.6296 28.5307 37.6665 28.5051 37.7212 28.4498C37.8308 28.339 37.786 28.3843 37.8855 28.2837C37.9403 28.2283 37.9441 28.2244 37.995 28.1729C38.1593 28.0069 38.1046 28.0622 38.2141 27.9515C38.3236 27.8408 38.3768 27.7847 38.474 27.6874C38.6103 27.5512 38.7235 27.3893 38.8147 27.2786C39.0885 26.9464 39.0873 27.006 39.145 26.8442C39.145 26.8076 39.145 26.7711 39.145 26.7335C37.1572 26.7335 35.1694 26.7335 33.1213 26.7335ZM26.8785 33.1558C26.8785 35.2021 26.8785 37.2484 26.8785 39.3567C27.0231 39.2471 27.1677 39.1375 27.3166 39.0245C27.3166 38.9514 27.4809 38.9891 27.4809 38.9138C27.6435 38.859 27.4793 38.7482 27.6452 38.6923C27.6452 38.6192 27.8095 38.6569 27.8095 38.5816C27.9721 38.5268 27.8078 38.4161 27.9738 38.3601C28.1234 38.1786 28.2689 37.9935 28.4118 37.8065C28.5928 37.62 28.7754 37.4361 28.9595 37.2528C29.1009 37.1106 29.2423 36.9682 29.3836 36.8258C29.4625 36.7464 29.5414 36.667 29.6226 36.5852C29.9771 36.2283 30.3312 35.8712 30.6853 35.514C30.8727 35.3251 31.0602 35.1363 31.2478 34.9476C31.5185 34.6753 31.7888 34.4026 32.059 34.1299C32.1435 34.045 32.2281 33.9601 32.3152 33.8727C32.3923 33.7946 32.4695 33.7166 32.549 33.6363C32.6174 33.5674 32.6858 33.4985 32.7563 33.4275C32.9146 33.2893 32.9146 33.2893 32.9023 33.1558C30.9144 33.1558 28.9266 33.1558 26.8785 33.1558ZM33.1213 33.1558C33.1213 35.2021 33.103 37.1632 33.103 39.2715C33.2089 39.1864 33.2953 39.1352 33.4997 38.9308C33.595 38.8355 33.7432 38.6873 33.8404 38.5901C33.9387 38.4909 34.2171 38.2143 34.3174 38.1131C34.3868 38.0433 34.6547 37.7762 34.7262 37.7043C34.8713 37.5581 34.9903 37.4418 35.1351 37.2954C35.3577 37.0706 35.5248 36.9061 35.7484 36.6821C35.8897 36.5396 36.0842 36.3478 36.2254 36.2052C36.2924 36.1381 36.4288 36.0016 36.4979 35.9326C36.8297 35.601 36.6684 35.7621 36.9749 35.4556C37.1793 35.2512 37.2669 35.1696 37.52 34.9105C37.6994 34.7269 37.7926 34.6379 37.997 34.4335C38.2696 34.1609 38.2696 34.1609 38.6103 33.8202C38.8829 33.5476 38.8829 33.5476 39.0192 33.4113C39.0873 33.3432 39.1554 33.2751 39.145 33.1558C37.1572 33.1558 35.1694 33.1558 33.1213 33.1558Z" fill="var(--fill-0, #1DBF98)" id="Vector"/>
<path d="M33.1213 33.156C33.1213 35.2754 33.1213 37.3947 33.1213 39.5783C31.025 39.5783 28.9815 39.5783 26.8218 39.5783C26.8218 39.3398 26.8218 39.425 26.8218 39.2036C26.8218 39.2036 26.8899 39.1354 26.958 39.0673C27.0262 38.9991 27.0396 38.9864 27.0943 38.931C27.2755 38.7816 27.3657 38.6755 27.6395 38.454C27.749 38.3433 27.7633 38.331 27.8439 38.2496C27.9534 38.1388 27.9775 38.1168 28.0483 38.0451C28.1578 37.9344 28.2114 37.8833 28.3209 37.7726C28.3929 37.6998 28.4158 37.6789 28.5253 37.5682C28.6896 37.4021 28.7431 37.351 28.7979 37.2956C29.0169 37.0741 29.0689 37.0315 29.2433 36.8266C29.3237 36.7446 29.4041 36.6626 29.4869 36.5782C29.6172 36.4472 29.6172 36.4472 29.75 36.3135C29.8392 36.2232 29.9283 36.1329 30.0201 36.0399C30.2084 35.8493 30.3969 35.6591 30.5857 35.4691C30.8757 35.1772 31.1645 34.884 31.4532 34.5907C31.6361 34.4059 31.8191 34.2212 32.0021 34.0366C32.1323 33.9043 32.1323 33.9043 32.2652 33.7693C32.3456 33.6887 32.426 33.6081 32.5088 33.525C32.5797 33.4536 32.6505 33.3821 32.7235 33.3085C32.9022 33.156 32.9022 33.156 33.1213 33.156Z" fill="var(--fill-0, #1DBF98)" id="Vector_2"/>
</g>
</g>
</g>
<defs>
<radialGradient cx="0" cy="0" gradientTransform="translate(30 30) rotate(90) scale(30)" gradientUnits="userSpaceOnUse" id="paint0_radial_0_15986" r="1">
<stop offset="0.375" stop-color="white"/>
<stop offset="1" stop-color="white" stop-opacity="0"/>
</radialGradient>
</defs>
</svg>